<?xml version="1.0" encoding="utf-8" standalone="no"?>
<!DOCTYPE svg PUBLIC "-//W3C//DTD SVG 1.1//EN"
  "http://www.w3.org/Graphics/SVG/1.1/DTD/svg11.dtd">
<!-- Created with matplotlib (https://matplotlib.org/) -->
<svg height="432pt" version="1.1" viewBox="0 0 648 432" width="648pt" xmlns="http://www.w3.org/2000/svg" xmlns:xlink="http://www.w3.org/1999/xlink">
 <defs>
  <style type="text/css">
*{stroke-linecap:butt;stroke-linejoin:round;}
  </style>
 </defs>
 <g id="figure_1">
  <g id="patch_1">
   <path d="M 0 432 
L 648 432 
L 648 0 
L 0 0 
z
" style="fill:#ffffff;"/>
  </g>
  <g id="axes_1">
   <g id="patch_2">
    <path d="M 81 384.48 
L 583.2 384.48 
L 583.2 51.84 
L 81 51.84 
z
" style="fill:#ffffff;"/>
   </g>
   <g id="matplotlib.axis_1">
    <g id="xtick_1">
     <g id="line2d_1">
      <defs>
       <path d="M 0 0 
L 0 3.5 
" id="me4d2d9d925" style="stroke:#000000;stroke-width:0.8;"/>
      </defs>
      <g>
       <use style="stroke:#000000;stroke-width:0.8;" x="81" xlink:href="#me4d2d9d925" y="384.48"/>
      </g>
     </g>
     <g id="text_1">
      <!-- 2020-03 -->
      <defs>
       <path d="M 19.1875 8.296875 
L 53.609375 8.296875 
L 53.609375 0 
L 7.328125 0 
L 7.328125 8.296875 
Q 12.9375 14.109375 22.625 23.890625 
Q 32.328125 33.6875 34.8125 36.53125 
Q 39.546875 41.84375 41.421875 45.53125 
Q 43.3125 49.21875 43.3125 52.78125 
Q 43.3125 58.59375 39.234375 62.25 
Q 35.15625 65.921875 28.609375 65.921875 
Q 23.96875 65.921875 18.8125 64.3125 
Q 13.671875 62.703125 7.8125 59.421875 
L 7.8125 69.390625 
Q 13.765625 71.78125 18.9375 73 
Q 24.125 74.21875 28.421875 74.21875 
Q 39.75 74.21875 46.484375 68.546875 
Q 53.21875 62.890625 53.21875 53.421875 
Q 53.21875 48.921875 51.53125 44.890625 
Q 49.859375 40.875 45.40625 35.40625 
Q 44.1875 33.984375 37.640625 27.21875 
Q 31.109375 20.453125 19.1875 8.296875 
z
" id="DejaVuSans-50"/>
       <path d="M 31.78125 66.40625 
Q 24.171875 66.40625 20.328125 58.90625 
Q 16.5 51.421875 16.5 36.375 
Q 16.5 21.390625 20.328125 13.890625 
Q 24.171875 6.390625 31.78125 6.390625 
Q 39.453125 6.390625 43.28125 13.890625 
Q 47.125 21.390625 47.125 36.375 
Q 47.125 51.421875 43.28125 58.90625 
Q 39.453125 66.40625 31.78125 66.40625 
z
M 31.78125 74.21875 
Q 44.046875 74.21875 50.515625 64.515625 
Q 56.984375 54.828125 56.984375 36.375 
Q 56.984375 17.96875 50.515625 8.265625 
Q 44.046875 -1.421875 31.78125 -1.421875 
Q 19.53125 -1.421875 13.0625 8.265625 
Q 6.59375 17.96875 6.59375 36.375 
Q 6.59375 54.828125 13.0625 64.515625 
Q 19.53125 74.21875 31.78125 74.21875 
z
" id="DejaVuSans-48"/>
       <path d="M 4.890625 31.390625 
L 31.203125 31.390625 
L 31.203125 23.390625 
L 4.890625 23.390625 
z
" id="DejaVuSans-45"/>
       <path d="M 40.578125 39.3125 
Q 47.65625 37.796875 51.625 33 
Q 55.609375 28.21875 55.609375 21.1875 
Q 55.609375 10.40625 48.1875 4.484375 
Q 40.765625 -1.421875 27.09375 -1.421875 
Q 22.515625 -1.421875 17.65625 -0.515625 
Q 12.796875 0.390625 7.625 2.203125 
L 7.625 11.71875 
Q 11.71875 9.328125 16.59375 8.109375 
Q 21.484375 6.890625 26.8125 6.890625 
Q 36.078125 6.890625 40.9375 10.546875 
Q 45.796875 14.203125 45.796875 21.1875 
Q 45.796875 27.640625 41.28125 31.265625 
Q 36.765625 34.90625 28.71875 34.90625 
L 20.21875 34.90625 
L 20.21875 43.015625 
L 29.109375 43.015625 
Q 36.375 43.015625 40.234375 45.921875 
Q 44.09375 48.828125 44.09375 54.296875 
Q 44.09375 59.90625 40.109375 62.90625 
Q 36.140625 65.921875 28.71875 65.921875 
Q 24.65625 65.921875 20.015625 65.03125 
Q 15.375 64.15625 9.8125 62.3125 
L 9.8125 71.09375 
Q 15.4375 72.65625 20.34375 73.4375 
Q 25.25 74.21875 29.59375 74.21875 
Q 40.828125 74.21875 47.359375 69.109375 
Q 53.90625 64.015625 53.90625 55.328125 
Q 53.90625 49.265625 50.4375 45.09375 
Q 46.96875 40.921875 40.578125 39.3125 
z
" id="DejaVuSans-51"/>
      </defs>
      <g transform="translate(60.108594 399.078438)scale(0.1 -0.1)">
       <use xlink:href="#DejaVuSans-50"/>
       <use x="63.623047" xlink:href="#DejaVuSans-48"/>
       <use x="127.246094" xlink:href="#DejaVuSans-50"/>
       <use x="190.869141" xlink:href="#DejaVuSans-48"/>
       <use x="254.492188" xlink:href="#DejaVuSans-45"/>
       <use x="290.576172" xlink:href="#DejaVuSans-48"/>
       <use x="354.199219" xlink:href="#DejaVuSans-51"/>
      </g>
     </g>
    </g>
    <g id="xtick_2">
     <g id="line2d_2">
      <g>
       <use style="stroke:#000000;stroke-width:0.8;" x="158.554937" xlink:href="#me4d2d9d925" y="384.48"/>
      </g>
     </g>
     <g id="text_2">
      <!-- 2020-05 -->
      <defs>
       <path d="M 10.796875 72.90625 
L 49.515625 72.90625 
L 49.515625 64.59375 
L 19.828125 64.59375 
L 19.828125 46.734375 
Q 21.96875 47.46875 24.109375 47.828125 
Q 26.265625 48.1875 28.421875 48.1875 
Q 40.625 48.1875 47.75 41.5 
Q 54.890625 34.8125 54.890625 23.390625 
Q 54.890625 11.625 47.5625 5.09375 
Q 40.234375 -1.421875 26.90625 -1.421875 
Q 22.3125 -1.421875 17.546875 -0.640625 
Q 12.796875 0.140625 7.71875 1.703125 
L 7.71875 11.625 
Q 12.109375 9.234375 16.796875 8.0625 
Q 21.484375 6.890625 26.703125 6.890625 
Q 35.15625 6.890625 40.078125 11.328125 
Q 45.015625 15.765625 45.015625 23.390625 
Q 45.015625 31 40.078125 35.4375 
Q 35.15625 39.890625 26.703125 39.890625 
Q 22.75 39.890625 18.8125 39.015625 
Q 14.890625 38.140625 10.796875 36.28125 
z
" id="DejaVuSans-53"/>
      </defs>
      <g transform="translate(137.66353 399.078438)scale(0.1 -0.1)">
       <use xlink:href="#DejaVuSans-50"/>
       <use x="63.623047" xlink:href="#DejaVuSans-48"/>
       <use x="127.246094" xlink:href="#DejaVuSans-50"/>
       <use x="190.869141" xlink:href="#DejaVuSans-48"/>
       <use x="254.492188" xlink:href="#DejaVuSans-45"/>
       <use x="290.576172" xlink:href="#DejaVuSans-48"/>
       <use x="354.199219" xlink:href="#DejaVuSans-53"/>
      </g>
     </g>
    </g>
    <g id="xtick_3">
     <g id="line2d_3">
      <g>
       <use style="stroke:#000000;stroke-width:0.8;" x="236.109873" xlink:href="#me4d2d9d925" y="384.48"/>
      </g>
     </g>
     <g id="text_3">
      <!-- 2020-07 -->
      <defs>
       <path d="M 8.203125 72.90625 
L 55.078125 72.90625 
L 55.078125 68.703125 
L 28.609375 0 
L 18.3125 0 
L 43.21875 64.59375 
L 8.203125 64.59375 
z
" id="DejaVuSans-55"/>
      </defs>
      <g transform="translate(215.218467 399.078438)scale(0.1 -0.1)">
       <use xlink:href="#DejaVuSans-50"/>
       <use x="63.623047" xlink:href="#DejaVuSans-48"/>
       <use x="127.246094" xlink:href="#DejaVuSans-50"/>
       <use x="190.869141" xlink:href="#DejaVuSans-48"/>
       <use x="254.492188" xlink:href="#DejaVuSans-45"/>
       <use x="290.576172" xlink:href="#DejaVuSans-48"/>
       <use x="354.199219" xlink:href="#DejaVuSans-55"/>
      </g>
     </g>
    </g>
    <g id="xtick_4">
     <g id="line2d_4">
      <g>
       <use style="stroke:#000000;stroke-width:0.8;" x="314.936203" xlink:href="#me4d2d9d925" y="384.48"/>
      </g>
     </g>
     <g id="text_4">
      <!-- 2020-09 -->
      <defs>
       <path d="M 10.984375 1.515625 
L 10.984375 10.5 
Q 14.703125 8.734375 18.5 7.8125 
Q 22.3125 6.890625 25.984375 6.890625 
Q 35.75 6.890625 40.890625 13.453125 
Q 46.046875 20.015625 46.78125 33.40625 
Q 43.953125 29.203125 39.59375 26.953125 
Q 35.25 24.703125 29.984375 24.703125 
Q 19.046875 24.703125 12.671875 31.3125 
Q 6.296875 37.9375 6.296875 49.421875 
Q 6.296875 60.640625 12.9375 67.421875 
Q 19.578125 74.21875 30.609375 74.21875 
Q 43.265625 74.21875 49.921875 64.515625 
Q 56.59375 54.828125 56.59375 36.375 
Q 56.59375 19.140625 48.40625 8.859375 
Q 40.234375 -1.421875 26.421875 -1.421875 
Q 22.703125 -1.421875 18.890625 -0.6875 
Q 15.09375 0.046875 10.984375 1.515625 
z
M 30.609375 32.421875 
Q 37.25 32.421875 41.125 36.953125 
Q 45.015625 41.5 45.015625 49.421875 
Q 45.015625 57.28125 41.125 61.84375 
Q 37.25 66.40625 30.609375 66.40625 
Q 23.96875 66.40625 20.09375 61.84375 
Q 16.21875 57.28125 16.21875 49.421875 
Q 16.21875 41.5 20.09375 36.953125 
Q 23.96875 32.421875 30.609375 32.421875 
z
" id="DejaVuSans-57"/>
      </defs>
      <g transform="translate(294.044796 399.078438)scale(0.1 -0.1)">
       <use xlink:href="#DejaVuSans-50"/>
       <use x="63.623047" xlink:href="#DejaVuSans-48"/>
       <use x="127.246094" xlink:href="#DejaVuSans-50"/>
       <use x="190.869141" xlink:href="#DejaVuSans-48"/>
       <use x="254.492188" xlink:href="#DejaVuSans-45"/>
       <use x="290.576172" xlink:href="#DejaVuSans-48"/>
       <use x="354.199219" xlink:href="#DejaVuSans-57"/>
      </g>
     </g>
    </g>
    <g id="xtick_5">
     <g id="line2d_5">
      <g>
       <use style="stroke:#000000;stroke-width:0.8;" x="392.491139" xlink:href="#me4d2d9d925" y="384.48"/>
      </g>
     </g>
     <g id="text_5">
      <!-- 2020-11 -->
      <defs>
       <path d="M 12.40625 8.296875 
L 28.515625 8.296875 
L 28.515625 63.921875 
L 10.984375 60.40625 
L 10.984375 69.390625 
L 28.421875 72.90625 
L 38.28125 72.90625 
L 38.28125 8.296875 
L 54.390625 8.296875 
L 54.390625 0 
L 12.40625 0 
z
" id="DejaVuSans-49"/>
      </defs>
      <g transform="translate(371.599733 399.078438)scale(0.1 -0.1)">
       <use xlink:href="#DejaVuSans-50"/>
       <use x="63.623047" xlink:href="#DejaVuSans-48"/>
       <use x="127.246094" xlink:href="#DejaVuSans-50"/>
       <use x="190.869141" xlink:href="#DejaVuSans-48"/>
       <use x="254.492188" xlink:href="#DejaVuSans-45"/>
       <use x="290.576172" xlink:href="#DejaVuSans-49"/>
       <use x="354.199219" xlink:href="#DejaVuSans-49"/>
      </g>
     </g>
    </g>
    <g id="xtick_6">
     <g id="line2d_6">
      <g>
       <use style="stroke:#000000;stroke-width:0.8;" x="470.046076" xlink:href="#me4d2d9d925" y="384.48"/>
      </g>
     </g>
     <g id="text_6">
      <!-- 2021-01 -->
      <g transform="translate(449.15467 399.078438)scale(0.1 -0.1)">
       <use xlink:href="#DejaVuSans-50"/>
       <use x="63.623047" xlink:href="#DejaVuSans-48"/>
       <use x="127.246094" xlink:href="#DejaVuSans-50"/>
       <use x="190.869141" xlink:href="#DejaVuSans-49"/>
       <use x="254.492188" xlink:href="#DejaVuSans-45"/>
       <use x="290.576172" xlink:href="#DejaVuSans-48"/>
       <use x="354.199219" xlink:href="#DejaVuSans-49"/>
      </g>
     </g>
    </g>
    <g id="xtick_7">
     <g id="line2d_7">
      <g>
       <use style="stroke:#000000;stroke-width:0.8;" x="545.058228" xlink:href="#me4d2d9d925" y="384.48"/>
      </g>
     </g>
     <g id="text_7">
      <!-- 2021-03 -->
      <g transform="translate(524.166822 399.078438)scale(0.1 -0.1)">
       <use xlink:href="#DejaVuSans-50"/>
       <use x="63.623047" xlink:href="#DejaVuSans-48"/>
       <use x="127.246094" xlink:href="#DejaVuSans-50"/>
       <use x="190.869141" xlink:href="#DejaVuSans-49"/>
       <use x="254.492188" xlink:href="#DejaVuSans-45"/>
       <use x="290.576172" xlink:href="#DejaVuSans-48"/>
       <use x="354.199219" xlink:href="#DejaVuSans-51"/>
      </g>
     </g>
    </g>
    <g id="text_8">
     <!-- Datum -->
     <defs>
      <path d="M 19.671875 64.796875 
L 19.671875 8.109375 
L 31.59375 8.109375 
Q 46.6875 8.109375 53.6875 14.9375 
Q 60.6875 21.78125 60.6875 36.53125 
Q 60.6875 51.171875 53.6875 57.984375 
Q 46.6875 64.796875 31.59375 64.796875 
z
M 9.8125 72.90625 
L 30.078125 72.90625 
Q 51.265625 72.90625 61.171875 64.09375 
Q 71.09375 55.28125 71.09375 36.53125 
Q 71.09375 17.671875 61.125 8.828125 
Q 51.171875 0 30.078125 0 
L 9.8125 0 
z
" id="DejaVuSans-68"/>
      <path d="M 34.28125 27.484375 
Q 23.390625 27.484375 19.1875 25 
Q 14.984375 22.515625 14.984375 16.5 
Q 14.984375 11.71875 18.140625 8.90625 
Q 21.296875 6.109375 26.703125 6.109375 
Q 34.1875 6.109375 38.703125 11.40625 
Q 43.21875 16.703125 43.21875 25.484375 
L 43.21875 27.484375 
z
M 52.203125 31.203125 
L 52.203125 0 
L 43.21875 0 
L 43.21875 8.296875 
Q 40.140625 3.328125 35.546875 0.953125 
Q 30.953125 -1.421875 24.3125 -1.421875 
Q 15.921875 -1.421875 10.953125 3.296875 
Q 6 8.015625 6 15.921875 
Q 6 25.140625 12.171875 29.828125 
Q 18.359375 34.515625 30.609375 34.515625 
L 43.21875 34.515625 
L 43.21875 35.40625 
Q 43.21875 41.609375 39.140625 45 
Q 35.0625 48.390625 27.6875 48.390625 
Q 23 48.390625 18.546875 47.265625 
Q 14.109375 46.140625 10.015625 43.890625 
L 10.015625 52.203125 
Q 14.9375 54.109375 19.578125 55.046875 
Q 24.21875 56 28.609375 56 
Q 40.484375 56 46.34375 49.84375 
Q 52.203125 43.703125 52.203125 31.203125 
z
" id="DejaVuSans-97"/>
      <path d="M 18.3125 70.21875 
L 18.3125 54.6875 
L 36.8125 54.6875 
L 36.8125 47.703125 
L 18.3125 47.703125 
L 18.3125 18.015625 
Q 18.3125 11.328125 20.140625 9.421875 
Q 21.96875 7.515625 27.59375 7.515625 
L 36.8125 7.515625 
L 36.8125 0 
L 27.59375 0 
Q 17.1875 0 13.234375 3.875 
Q 9.28125 7.765625 9.28125 18.015625 
L 9.28125 47.703125 
L 2.6875 47.703125 
L 2.6875 54.6875 
L 9.28125 54.6875 
L 9.28125 70.21875 
z
" id="DejaVuSans-116"/>
      <path d="M 8.5 21.578125 
L 8.5 54.6875 
L 17.484375 54.6875 
L 17.484375 21.921875 
Q 17.484375 14.15625 20.5 10.265625 
Q 23.53125 6.390625 29.59375 6.390625 
Q 36.859375 6.390625 41.078125 11.03125 
Q 45.3125 15.671875 45.3125 23.6875 
L 45.3125 54.6875 
L 54.296875 54.6875 
L 54.296875 0 
L 45.3125 0 
L 45.3125 8.40625 
Q 42.046875 3.421875 37.71875 1 
Q 33.40625 -1.421875 27.6875 -1.421875 
Q 18.265625 -1.421875 13.375 4.4375 
Q 8.5 10.296875 8.5 21.578125 
z
M 31.109375 56 
z
" id="DejaVuSans-117"/>
      <path d="M 52 44.1875 
Q 55.375 50.25 60.0625 53.125 
Q 64.75 56 71.09375 56 
Q 79.640625 56 84.28125 50.015625 
Q 88.921875 44.046875 88.921875 33.015625 
L 88.921875 0 
L 79.890625 0 
L 79.890625 32.71875 
Q 79.890625 40.578125 77.09375 44.375 
Q 74.3125 48.1875 68.609375 48.1875 
Q 61.625 48.1875 57.5625 43.546875 
Q 53.515625 38.921875 53.515625 30.90625 
L 53.515625 0 
L 44.484375 0 
L 44.484375 32.71875 
Q 44.484375 40.625 41.703125 44.40625 
Q 38.921875 48.1875 33.109375 48.1875 
Q 26.21875 48.1875 22.15625 43.53125 
Q 18.109375 38.875 18.109375 30.90625 
L 18.109375 0 
L 9.078125 0 
L 9.078125 54.6875 
L 18.109375 54.6875 
L 18.109375 46.1875 
Q 21.1875 51.21875 25.484375 53.609375 
Q 29.78125 56 35.6875 56 
Q 41.65625 56 45.828125 52.96875 
Q 50 49.953125 52 44.1875 
z
" id="DejaVuSans-109"/>
     </defs>
     <g transform="translate(315.186719 412.756563)scale(0.1 -0.1)">
      <use xlink:href="#DejaVuSans-68"/>
      <use x="77.001953" xlink:href="#DejaVuSans-97"/>
      <use x="138.28125" xlink:href="#DejaVuSans-116"/>
      <use x="177.490234" xlink:href="#DejaVuSans-117"/>
      <use x="240.869141" xlink:href="#DejaVuSans-109"/>
     </g>
    </g>
   </g>
   <g id="matplotlib.axis_2">
    <g id="ytick_1">
     <g id="line2d_8">
      <defs>
       <path d="M 0 0 
L -3.5 0 
" id="mf94a3a07f4" style="stroke:#000000;stroke-width:0.8;"/>
      </defs>
      <g>
       <use style="stroke:#000000;stroke-width:0.8;" x="81" xlink:href="#mf94a3a07f4" y="369.68033"/>
      </g>
     </g>
     <g id="text_9">
      <!-- 0 -->
      <g transform="translate(67.6375 373.479548)scale(0.1 -0.1)">
       <use xlink:href="#DejaVuSans-48"/>
      </g>
     </g>
    </g>
    <g id="ytick_2">
     <g id="line2d_9">
      <g>
       <use style="stroke:#000000;stroke-width:0.8;" x="81" xlink:href="#mf94a3a07f4" y="325.190113"/>
      </g>
     </g>
     <g id="text_10">
      <!-- 5000 -->
      <g transform="translate(48.55 328.989332)scale(0.1 -0.1)">
       <use xlink:href="#DejaVuSans-53"/>
       <use x="63.623047" xlink:href="#DejaVuSans-48"/>
       <use x="127.246094" xlink:href="#DejaVuSans-48"/>
       <use x="190.869141" xlink:href="#DejaVuSans-48"/>
      </g>
     </g>
    </g>
    <g id="ytick_3">
     <g id="line2d_10">
      <g>
       <use style="stroke:#000000;stroke-width:0.8;" x="81" xlink:href="#mf94a3a07f4" y="280.699897"/>
      </g>
     </g>
     <g id="text_11">
      <!-- 10000 -->
      <g transform="translate(42.1875 284.499116)scale(0.1 -0.1)">
       <use xlink:href="#DejaVuSans-49"/>
       <use x="63.623047" xlink:href="#DejaVuSans-48"/>
       <use x="127.246094" xlink:href="#DejaVuSans-48"/>
       <use x="190.869141" xlink:href="#DejaVuSans-48"/>
       <use x="254.492188" xlink:href="#DejaVuSans-48"/>
      </g>
     </g>
    </g>
    <g id="ytick_4">
     <g id="line2d_11">
      <g>
       <use style="stroke:#000000;stroke-width:0.8;" x="81" xlink:href="#mf94a3a07f4" y="236.209681"/>
      </g>
     </g>
     <g id="text_12">
      <!-- 15000 -->
      <g transform="translate(42.1875 240.008899)scale(0.1 -0.1)">
       <use xlink:href="#DejaVuSans-49"/>
       <use x="63.623047" xlink:href="#DejaVuSans-53"/>
       <use x="127.246094" xlink:href="#DejaVuSans-48"/>
       <use x="190.869141" xlink:href="#DejaVuSans-48"/>
       <use x="254.492188" xlink:href="#DejaVuSans-48"/>
      </g>
     </g>
    </g>
    <g id="ytick_5">
     <g id="line2d_12">
      <g>
       <use style="stroke:#000000;stroke-width:0.8;" x="81" xlink:href="#mf94a3a07f4" y="191.719464"/>
      </g>
     </g>
     <g id="text_13">
      <!-- 20000 -->
      <g transform="translate(42.1875 195.518683)scale(0.1 -0.1)">
       <use xlink:href="#DejaVuSans-50"/>
       <use x="63.623047" xlink:href="#DejaVuSans-48"/>
       <use x="127.246094" xlink:href="#DejaVuSans-48"/>
       <use x="190.869141" xlink:href="#DejaVuSans-48"/>
       <use x="254.492188" xlink:href="#DejaVuSans-48"/>
      </g>
     </g>
    </g>
    <g id="ytick_6">
     <g id="line2d_13">
      <g>
       <use style="stroke:#000000;stroke-width:0.8;" x="81" xlink:href="#mf94a3a07f4" y="147.229248"/>
      </g>
     </g>
     <g id="text_14">
      <!-- 25000 -->
      <g transform="translate(42.1875 151.028467)scale(0.1 -0.1)">
       <use xlink:href="#DejaVuSans-50"/>
       <use x="63.623047" xlink:href="#DejaVuSans-53"/>
       <use x="127.246094" xlink:href="#DejaVuSans-48"/>
       <use x="190.869141" xlink:href="#DejaVuSans-48"/>
       <use x="254.492188" xlink:href="#DejaVuSans-48"/>
      </g>
     </g>
    </g>
    <g id="ytick_7">
     <g id="line2d_14">
      <g>
       <use style="stroke:#000000;stroke-width:0.8;" x="81" xlink:href="#mf94a3a07f4" y="102.739032"/>
      </g>
     </g>
     <g id="text_15">
      <!-- 30000 -->
      <g transform="translate(42.1875 106.538251)scale(0.1 -0.1)">
       <use xlink:href="#DejaVuSans-51"/>
       <use x="63.623047" xlink:href="#DejaVuSans-48"/>
       <use x="127.246094" xlink:href="#DejaVuSans-48"/>
       <use x="190.869141" xlink:href="#DejaVuSans-48"/>
       <use x="254.492188" xlink:href="#DejaVuSans-48"/>
      </g>
     </g>
    </g>
    <g id="ytick_8">
     <g id="line2d_15">
      <g>
       <use style="stroke:#000000;stroke-width:0.8;" x="81" xlink:href="#mf94a3a07f4" y="58.248816"/>
      </g>
     </g>
     <g id="text_16">
      <!-- 35000 -->
      <g transform="translate(42.1875 62.048034)scale(0.1 -0.1)">
       <use xlink:href="#DejaVuSans-51"/>
       <use x="63.623047" xlink:href="#DejaVuSans-53"/>
       <use x="127.246094" xlink:href="#DejaVuSans-48"/>
       <use x="190.869141" xlink:href="#DejaVuSans-48"/>
       <use x="254.492188" xlink:href="#DejaVuSans-48"/>
      </g>
     </g>
    </g>
    <g id="text_17">
     <!-- Gemeldete Fälle pro Tag -->
     <defs>
      <path d="M 59.515625 10.40625 
L 59.515625 29.984375 
L 43.40625 29.984375 
L 43.40625 38.09375 
L 69.28125 38.09375 
L 69.28125 6.78125 
Q 63.578125 2.734375 56.6875 0.65625 
Q 49.8125 -1.421875 42 -1.421875 
Q 24.90625 -1.421875 15.25 8.5625 
Q 5.609375 18.5625 5.609375 36.375 
Q 5.609375 54.25 15.25 64.234375 
Q 24.90625 74.21875 42 74.21875 
Q 49.125 74.21875 55.546875 72.453125 
Q 61.96875 70.703125 67.390625 67.28125 
L 67.390625 56.78125 
Q 61.921875 61.421875 55.765625 63.765625 
Q 49.609375 66.109375 42.828125 66.109375 
Q 29.4375 66.109375 22.71875 58.640625 
Q 16.015625 51.171875 16.015625 36.375 
Q 16.015625 21.625 22.71875 14.15625 
Q 29.4375 6.6875 42.828125 6.6875 
Q 48.046875 6.6875 52.140625 7.59375 
Q 56.25 8.5 59.515625 10.40625 
z
" id="DejaVuSans-71"/>
      <path d="M 56.203125 29.59375 
L 56.203125 25.203125 
L 14.890625 25.203125 
Q 15.484375 15.921875 20.484375 11.0625 
Q 25.484375 6.203125 34.421875 6.203125 
Q 39.59375 6.203125 44.453125 7.46875 
Q 49.3125 8.734375 54.109375 11.28125 
L 54.109375 2.78125 
Q 49.265625 0.734375 44.1875 -0.34375 
Q 39.109375 -1.421875 33.890625 -1.421875 
Q 20.796875 -1.421875 13.15625 6.1875 
Q 5.515625 13.8125 5.515625 26.8125 
Q 5.515625 40.234375 12.765625 48.109375 
Q 20.015625 56 32.328125 56 
Q 43.359375 56 49.78125 48.890625 
Q 56.203125 41.796875 56.203125 29.59375 
z
M 47.21875 32.234375 
Q 47.125 39.59375 43.09375 43.984375 
Q 39.0625 48.390625 32.421875 48.390625 
Q 24.90625 48.390625 20.390625 44.140625 
Q 15.875 39.890625 15.1875 32.171875 
z
" id="DejaVuSans-101"/>
      <path d="M 9.421875 75.984375 
L 18.40625 75.984375 
L 18.40625 0 
L 9.421875 0 
z
" id="DejaVuSans-108"/>
      <path d="M 45.40625 46.390625 
L 45.40625 75.984375 
L 54.390625 75.984375 
L 54.390625 0 
L 45.40625 0 
L 45.40625 8.203125 
Q 42.578125 3.328125 38.25 0.953125 
Q 33.9375 -1.421875 27.875 -1.421875 
Q 17.96875 -1.421875 11.734375 6.484375 
Q 5.515625 14.40625 5.515625 27.296875 
Q 5.515625 40.1875 11.734375 48.09375 
Q 17.96875 56 27.875 56 
Q 33.9375 56 38.25 53.625 
Q 42.578125 51.265625 45.40625 46.390625 
z
M 14.796875 27.296875 
Q 14.796875 17.390625 18.875 11.75 
Q 22.953125 6.109375 30.078125 6.109375 
Q 37.203125 6.109375 41.296875 11.75 
Q 45.40625 17.390625 45.40625 27.296875 
Q 45.40625 37.203125 41.296875 42.84375 
Q 37.203125 48.484375 30.078125 48.484375 
Q 22.953125 48.484375 18.875 42.84375 
Q 14.796875 37.203125 14.796875 27.296875 
z
" id="DejaVuSans-100"/>
      <path id="DejaVuSans-32"/>
      <path d="M 9.8125 72.90625 
L 51.703125 72.90625 
L 51.703125 64.59375 
L 19.671875 64.59375 
L 19.671875 43.109375 
L 48.578125 43.109375 
L 48.578125 34.8125 
L 19.671875 34.8125 
L 19.671875 0 
L 9.8125 0 
z
" id="DejaVuSans-70"/>
      <path d="M 34.28125 27.484375 
Q 23.390625 27.484375 19.1875 25 
Q 14.984375 22.515625 14.984375 16.5 
Q 14.984375 11.71875 18.140625 8.90625 
Q 21.296875 6.109375 26.703125 6.109375 
Q 34.1875 6.109375 38.703125 11.40625 
Q 43.21875 16.703125 43.21875 25.484375 
L 43.21875 27.484375 
z
M 52.203125 31.203125 
L 52.203125 0 
L 43.21875 0 
L 43.21875 8.296875 
Q 40.140625 3.328125 35.546875 0.953125 
Q 30.953125 -1.421875 24.3125 -1.421875 
Q 15.921875 -1.421875 10.953125 3.296875 
Q 6 8.015625 6 15.921875 
Q 6 25.140625 12.171875 29.828125 
Q 18.359375 34.515625 30.609375 34.515625 
L 43.21875 34.515625 
L 43.21875 35.40625 
Q 43.21875 41.609375 39.140625 45 
Q 35.0625 48.390625 27.6875 48.390625 
Q 23 48.390625 18.546875 47.265625 
Q 14.109375 46.140625 10.015625 43.890625 
L 10.015625 52.203125 
Q 14.9375 54.109375 19.578125 55.046875 
Q 24.21875 56 28.609375 56 
Q 40.484375 56 46.34375 49.84375 
Q 52.203125 43.703125 52.203125 31.203125 
z
M 33.59375 75.78125 
L 43.5 75.78125 
L 43.5 65.921875 
L 33.59375 65.921875 
z
M 14.5 75.78125 
L 24.421875 75.78125 
L 24.421875 65.921875 
L 14.5 65.921875 
z
" id="DejaVuSans-228"/>
      <path d="M 18.109375 8.203125 
L 18.109375 -20.796875 
L 9.078125 -20.796875 
L 9.078125 54.6875 
L 18.109375 54.6875 
L 18.109375 46.390625 
Q 20.953125 51.265625 25.265625 53.625 
Q 29.59375 56 35.59375 56 
Q 45.5625 56 51.78125 48.09375 
Q 58.015625 40.1875 58.015625 27.296875 
Q 58.015625 14.40625 51.78125 6.484375 
Q 45.5625 -1.421875 35.59375 -1.421875 
Q 29.59375 -1.421875 25.265625 0.953125 
Q 20.953125 3.328125 18.109375 8.203125 
z
M 48.6875 27.296875 
Q 48.6875 37.203125 44.609375 42.84375 
Q 40.53125 48.484375 33.40625 48.484375 
Q 26.265625 48.484375 22.1875 42.84375 
Q 18.109375 37.203125 18.109375 27.296875 
Q 18.109375 17.390625 22.1875 11.75 
Q 26.265625 6.109375 33.40625 6.109375 
Q 40.53125 6.109375 44.609375 11.75 
Q 48.6875 17.390625 48.6875 27.296875 
z
" id="DejaVuSans-112"/>
      <path d="M 41.109375 46.296875 
Q 39.59375 47.171875 37.8125 47.578125 
Q 36.03125 48 33.890625 48 
Q 26.265625 48 22.1875 43.046875 
Q 18.109375 38.09375 18.109375 28.8125 
L 18.109375 0 
L 9.078125 0 
L 9.078125 54.6875 
L 18.109375 54.6875 
L 18.109375 46.1875 
Q 20.953125 51.171875 25.484375 53.578125 
Q 30.03125 56 36.53125 56 
Q 37.453125 56 38.578125 55.875 
Q 39.703125 55.765625 41.0625 55.515625 
z
" id="DejaVuSans-114"/>
      <path d="M 30.609375 48.390625 
Q 23.390625 48.390625 19.1875 42.75 
Q 14.984375 37.109375 14.984375 27.296875 
Q 14.984375 17.484375 19.15625 11.84375 
Q 23.34375 6.203125 30.609375 6.203125 
Q 37.796875 6.203125 41.984375 11.859375 
Q 46.1875 17.53125 46.1875 27.296875 
Q 46.1875 37.015625 41.984375 42.703125 
Q 37.796875 48.390625 30.609375 48.390625 
z
M 30.609375 56 
Q 42.328125 56 49.015625 48.375 
Q 55.71875 40.765625 55.71875 27.296875 
Q 55.71875 13.875 49.015625 6.21875 
Q 42.328125 -1.421875 30.609375 -1.421875 
Q 18.84375 -1.421875 12.171875 6.21875 
Q 5.515625 13.875 5.515625 27.296875 
Q 5.515625 40.765625 12.171875 48.375 
Q 18.84375 56 30.609375 56 
z
" id="DejaVuSans-111"/>
      <path d="M -0.296875 72.90625 
L 61.375 72.90625 
L 61.375 64.59375 
L 35.5 64.59375 
L 35.5 0 
L 25.59375 0 
L 25.59375 64.59375 
L -0.296875 64.59375 
z
" id="DejaVuSans-84"/>
      <path d="M 45.40625 27.984375 
Q 45.40625 37.75 41.375 43.109375 
Q 37.359375 48.484375 30.078125 48.484375 
Q 22.859375 48.484375 18.828125 43.109375 
Q 14.796875 37.75 14.796875 27.984375 
Q 14.796875 18.265625 18.828125 12.890625 
Q 22.859375 7.515625 30.078125 7.515625 
Q 37.359375 7.515625 41.375 12.890625 
Q 45.40625 18.265625 45.40625 27.984375 
z
M 54.390625 6.78125 
Q 54.390625 -7.171875 48.1875 -13.984375 
Q 42 -20.796875 29.203125 -20.796875 
Q 24.46875 -20.796875 20.265625 -20.09375 
Q 16.0625 -19.390625 12.109375 -17.921875 
L 12.109375 -9.1875 
Q 16.0625 -11.328125 19.921875 -12.34375 
Q 23.78125 -13.375 27.78125 -13.375 
Q 36.625 -13.375 41.015625 -8.765625 
Q 45.40625 -4.15625 45.40625 5.171875 
L 45.40625 9.625 
Q 42.625 4.78125 38.28125 2.390625 
Q 33.9375 0 27.875 0 
Q 17.828125 0 11.671875 7.65625 
Q 5.515625 15.328125 5.515625 27.984375 
Q 5.515625 40.671875 11.671875 48.328125 
Q 17.828125 56 27.875 56 
Q 33.9375 56 38.28125 53.609375 
Q 42.625 51.21875 45.40625 46.390625 
L 45.40625 54.6875 
L 54.390625 54.6875 
z
" id="DejaVuSans-103"/>
     </defs>
     <g transform="translate(36.107812 278.483437)rotate(-90)scale(0.1 -0.1)">
      <use xlink:href="#DejaVuSans-71"/>
      <use x="77.490234" xlink:href="#DejaVuSans-101"/>
      <use x="139.013672" xlink:href="#DejaVuSans-109"/>
      <use x="236.425781" xlink:href="#DejaVuSans-101"/>
      <use x="297.949219" xlink:href="#DejaVuSans-108"/>
      <use x="325.732422" xlink:href="#DejaVuSans-100"/>
      <use x="389.208984" xlink:href="#DejaVuSans-101"/>
      <use x="450.732422" xlink:href="#DejaVuSans-116"/>
      <use x="489.941406" xlink:href="#DejaVuSans-101"/>
      <use x="551.464844" xlink:href="#DejaVuSans-32"/>
      <use x="583.251953" xlink:href="#DejaVuSans-70"/>
      <use x="631.646484" xlink:href="#DejaVuSans-228"/>
      <use x="692.925781" xlink:href="#DejaVuSans-108"/>
      <use x="720.708984" xlink:href="#DejaVuSans-108"/>
      <use x="748.492188" xlink:href="#DejaVuSans-101"/>
      <use x="810.015625" xlink:href="#DejaVuSans-32"/>
      <use x="841.802734" xlink:href="#DejaVuSans-112"/>
      <use x="905.279297" xlink:href="#DejaVuSans-114"/>
      <use x="944.142578" xlink:href="#DejaVuSans-111"/>
      <use x="1005.324219" xlink:href="#DejaVuSans-32"/>
      <use x="1037.111328" xlink:href="#DejaVuSans-84"/>
      <use x="1081.695312" xlink:href="#DejaVuSans-97"/>
      <use x="1142.974609" xlink:href="#DejaVuSans-103"/>
     </g>
    </g>
   </g>
   <g id="line2d_16">
    <path clip-path="url(#pdce5141124)" d="M 81 369.36 
L 82.271392 369.324408 
L 83.542785 368.923996 
L 84.814177 368.292235 
L 86.08557 368.025294 
L 87.356962 368.025294 
L 89.899747 368.772729 
L 92.442532 364.350402 
L 93.713924 362.944511 
L 94.985316 360.862369 
L 96.256709 356.724779 
L 97.528101 358.077281 
L 98.799494 360.969145 
L 101.342278 342.639176 
L 102.613671 337.513903 
L 103.885063 333.536478 
L 105.156456 333.580968 
L 106.427848 339.765108 
L 107.699241 349.508465 
L 108.970633 336.490628 
L 110.242025 326.240082 
L 111.513418 319.130546 
L 112.78481 317.137384 
L 114.056203 316.452235 
L 115.327595 327.628177 
L 116.598987 342.265458 
L 117.87038 333.020391 
L 119.141772 315.731493 
L 120.413165 313.969681 
L 121.684557 311.38035 
L 122.955949 314.628136 
L 125.498734 347.017013 
L 126.770127 337.015613 
L 128.041519 323.419403 
L 129.312911 322.680865 
L 130.584304 325.946447 
L 131.855696 339.782904 
L 133.127089 343.991679 
L 134.398481 353.085479 
L 135.669873 355.416766 
L 138.212658 340.07654 
L 139.484051 339.284614 
L 140.755443 342.514604 
L 142.026835 350.905458 
L 143.298228 357.409928 
L 144.56962 354.357899 
L 145.841013 350.238105 
L 147.112405 347.515304 
L 148.383797 351.083419 
L 149.65519 352.720659 
L 150.926582 358.35312 
L 152.197975 363.416107 
L 153.469367 359.750113 
L 154.740759 356.600206 
L 156.012152 356.938332 
L 157.283544 356.698084 
L 158.554937 361.520824 
L 159.826329 364.163543 
L 161.097722 365.907559 
L 162.369114 363.202554 
L 163.640506 359.954768 
L 164.911899 358.806921 
L 166.183291 359.020474 
L 167.454684 360.960247 
L 168.726076 363.647456 
L 169.997468 366.646097 
L 171.268861 363.558476 
L 172.540253 362.090299 
L 173.811646 361.565314 
L 175.083038 362.472915 
L 176.35443 363.193656 
L 177.625823 365.58723 
L 178.897215 366.868548 
L 180.168608 364.85759 
L 181.44 363.17586 
L 182.711392 362.277158 
L 183.982785 365.969846 
L 185.254177 364.982163 
L 186.52557 366.672791 
L 187.796962 367.687168 
L 190.339747 364.199135 
L 191.611139 363.914398 
L 192.882532 364.991061 
L 195.425316 366.352461 
L 196.696709 368.08758 
L 197.968101 368.461298 
L 199.239494 366.975324 
L 200.510886 365.2669 
L 201.782278 364.982163 
L 203.053671 365.782987 
L 204.325063 367.144387 
L 205.596456 368.22105 
L 208.139241 365.871967 
L 209.410633 365.071143 
L 210.682025 367.206674 
L 211.953418 366.566014 
L 213.22481 367.019815 
L 214.496203 368.149866 
L 215.767595 367.375736 
L 217.038987 364.866488 
L 218.31038 360.951349 
L 219.581772 364.03897 
L 220.853165 361.387353 
L 222.124557 365.017755 
L 223.395949 367.411329 
L 224.667342 365.373677 
L 225.938734 364.777508 
L 227.210127 365.195716 
L 228.481519 364.599547 
L 229.752911 364.563955 
L 231.024304 366.752873 
L 232.295696 367.909619 
L 233.567089 365.978744 
L 234.838481 365.596128 
L 236.109873 365.373677 
L 237.381266 365.498249 
L 238.652658 365.889763 
L 241.195443 368.416807 
L 242.466835 366.832956 
L 245.00962 365.649516 
L 246.281013 365.880865 
L 247.552405 365.880865 
L 250.09519 368.514686 
L 251.366582 366.797364 
L 252.637975 365.578332 
L 253.909367 364.90208 
L 255.180759 364.724119 
L 256.452152 365.035551 
L 257.723544 365.871967 
L 258.994937 368.016395 
L 260.266329 365.622822 
L 261.537722 365.053347 
L 262.809114 363.469495 
L 264.080506 363.487291 
L 265.351899 362.517405 
L 266.623291 364.848692 
L 267.894684 367.802842 
L 269.166076 364.991061 
L 270.437468 362.953409 
L 271.708861 361.6276 
L 272.980253 362.108095 
L 274.251646 361.485232 
L 275.523038 364.688527 
L 276.79443 367.002019 
L 278.065823 362.579691 
L 279.337215 361.262781 
L 280.608608 359.776807 
L 281.88 359.305211 
L 283.151392 360.737796 
L 284.422785 363.353821 
L 285.694177 366.841854 
L 286.96557 359.85689 
L 288.236962 359.056066 
L 289.508354 355.977343 
L 290.779747 356.431143 
L 292.051139 357.436622 
L 293.322532 362.971205 
L 294.593924 365.302492 
L 295.865316 355.897261 
L 297.136709 356.012935 
L 298.408101 354.090958 
L 299.679494 355.256601 
L 300.950886 354.962966 
L 302.222278 361.547518 
L 303.493671 364.652935 
L 304.765063 356.94723 
L 306.036456 356.529022 
L 307.307848 355.327786 
L 308.579241 355.968445 
L 309.850633 357.320947 
L 311.122025 362.277158 
L 312.393418 364.90208 
L 313.66481 359.145046 
L 314.936203 357.934912 
L 317.478987 356.164202 
L 318.75038 356.404449 
L 320.021772 359.830196 
L 321.293165 364.537261 
L 322.564557 357.125191 
L 323.835949 357.383234 
L 325.107342 354.08206 
L 326.378734 355.514645 
L 327.650127 354.98966 
L 330.192911 362.935613 
L 331.464304 356.484531 
L 332.735696 351.839753 
L 334.007089 350.131329 
L 335.278481 348.725438 
L 336.549873 350.35378 
L 337.821266 357.258661 
L 339.092658 363.54068 
L 340.364051 354.94517 
L 341.635443 353.548177 
L 342.906835 350.051246 
L 344.178228 348.360618 
L 345.44962 348.965685 
L 346.721013 353.770628 
L 347.992405 361.894542 
L 349.263797 353.476993 
L 350.53519 350.371576 
L 351.806582 345.361977 
L 353.077975 343.635757 
L 354.349367 343.706941 
L 355.620759 350.015654 
L 356.892152 359.411988 
L 359.434937 337.771946 
L 360.706329 329.719217 
L 361.977722 328.064181 
L 363.249114 324.700721 
L 365.791899 349.428383 
L 367.063291 332.406426 
L 368.334684 321.871143 
L 369.606076 305.169516 
L 370.877468 299.181133 
L 372.148861 298.762925 
L 373.420253 318.970381 
L 374.691646 336.908836 
L 377.23443 285.638311 
L 378.505823 259.344593 
L 379.777215 246.015324 
L 381.048608 244.751802 
L 382.32 270.858661 
L 383.591392 303.203048 
L 384.862785 262.654665 
L 386.134177 227.569681 
L 387.40557 198.312915 
L 388.676962 192.982987 
L 389.948354 196.88033 
L 391.219747 244.876375 
L 392.491139 275.91275 
L 393.762532 233.931782 
L 395.033924 197.512091 
L 396.305316 180.792667 
L 397.576709 171.396334 
L 398.848101 177.616066 
L 401.390886 279.133841 
L 402.662278 227.614171 
L 403.933671 195.056231 
L 405.205063 167.676952 
L 406.476456 160.460639 
L 407.747848 179.466859 
L 409.019241 229.046756 
L 410.290633 290.754686 
L 412.833418 188.569557 
L 414.10481 158.743316 
L 415.376203 158.31621 
L 416.647595 171.200577 
L 417.918987 238.051576 
L 419.19038 290.914851 
L 420.461772 235.355469 
L 421.733165 196.622286 
L 423.004557 173.158146 
L 424.275949 167.0007 
L 425.547342 190.402554 
L 426.818734 236.770257 
L 428.090127 291.413141 
L 429.361519 251.113903 
L 430.632911 198.348507 
L 431.904304 163.192338 
L 433.175696 152.08758 
L 434.447089 171.325149 
L 435.718481 229.794192 
L 436.989873 278.386406 
L 439.532658 166.449022 
L 440.804051 123.25792 
L 442.075443 110.969722 
L 443.346835 126.719258 
L 444.618228 185.935736 
L 445.88962 258.383605 
L 447.161013 199.861174 
L 448.432405 130.011535 
L 449.703797 90.486426 
L 450.97519 84.444655 
L 452.246582 104.634315 
L 454.789367 245.543728 
L 456.060759 188.3738 
L 457.332152 111.521401 
L 458.603544 66.96 
L 459.874937 181.130793 
L 461.146329 252.092688 
L 463.689114 282.150278 
L 464.960506 229.553944 
L 466.231899 124.343481 
L 467.503291 92.826612 
L 468.774684 194.780391 
L 470.046076 278.208445 
L 471.317468 280.557528 
L 472.588861 291.092812 
L 473.860253 243.070072 
L 475.131646 125.873944 
L 476.403038 120.588507 
L 477.67443 136.89862 
L 478.945823 151.304552 
L 481.488608 294.046962 
L 482.76 249.378785 
L 484.031392 168.602348 
L 485.302785 155.175201 
L 486.574177 187.688651 
L 487.84557 206.668177 
L 489.116962 250.40206 
L 490.388354 310.846468 
L 491.659747 288.209846 
L 492.931139 205.493635 
L 494.202532 196.035015 
L 495.473924 219.970752 
L 496.745316 235.916045 
L 498.016709 266.605396 
L 499.288101 325.029949 
L 500.559494 309.547353 
L 501.830886 231.733965 
L 503.102278 228.797611 
L 504.373671 250.562225 
L 505.645063 257.760742 
L 506.916456 280.975736 
L 508.187848 332.157281 
L 509.459241 317.413223 
L 510.730633 259.94966 
L 512.002025 250.144016 
L 513.273418 267.174871 
L 514.54481 280.468548 
L 515.816203 294.972358 
L 517.087595 342.16758 
L 518.358987 332.25516 
L 519.63038 288.743728 
L 520.901772 278.172853 
L 522.173165 286.341256 
L 523.444557 293.73553 
L 524.715949 319.61104 
L 525.987342 336.268177 
L 527.258734 330.475551 
L 528.530127 287.266653 
L 529.801519 280.655407 
L 531.072911 287.320041 
L 532.344304 291.938126 
L 533.615696 300.346777 
L 534.887089 342.594686 
L 536.158481 330.493347 
L 537.429873 278.760124 
L 538.701266 268.918888 
L 539.972658 281.198187 
L 541.244051 285.487044 
L 542.515443 301.414542 
L 543.786835 338.84861 
L 545.058228 327.79724 
L 546.32962 272.024305 
L 547.601013 268.918888 
L 548.872405 279.507559 
L 550.143797 283.511679 
L 551.41519 295.728692 
L 552.686582 339.658332 
L 553.957975 326.542616 
L 555.229367 267.139279 
L 556.500759 244.938661 
L 557.772152 252.662163 
L 559.043544 258.063275 
L 560.314937 276.197487 
L 561.586329 326.337961 
L 562.857722 308.960082 
L 564.129114 228.859897 
L 565.400506 205.760577 
L 566.671899 220.371164 
L 567.943291 229.714109 
L 569.214684 251.834645 
L 570.486076 316.443337 
L 571.757468 290.114027 
L 573.028861 195.857055 
L 574.300253 167.463399 
L 575.571646 174.181421 
L 576.843038 190.989825 
L 578.11443 229.260309 
L 579.385823 301.859444 
L 580.657215 271.49932 
L 581.928608 188.000082 
L 583.2 155.40655 
L 583.2 155.40655 
" style="fill:none;stroke:#1f77b4;stroke-linecap:square;stroke-width:1.5;"/>
   </g>
   <g id="line2d_17">
    <path clip-path="url(#pdce5141124)" d="M 81 305.800333 
L 583.2 305.800333 
" style="fill:none;stroke:#000000;stroke-dasharray:3.7,1.6;stroke-dashoffset:0;"/>
   </g>
   <g id="patch_3">
    <path d="M 81 384.48 
L 81 51.84 
" style="fill:none;stroke:#000000;stroke-linecap:square;stroke-linejoin:miter;stroke-width:0.8;"/>
   </g>
   <g id="patch_4">
    <path d="M 583.2 384.48 
L 583.2 51.84 
" style="fill:none;stroke:#000000;stroke-linecap:square;stroke-linejoin:miter;stroke-width:0.8;"/>
   </g>
   <g id="patch_5">
    <path d="M 81 384.48 
L 583.2 384.48 
" style="fill:none;stroke:#000000;stroke-linecap:square;stroke-linejoin:miter;stroke-width:0.8;"/>
   </g>
   <g id="patch_6">
    <path d="M 81 51.84 
L 583.2 51.84 
" style="fill:none;stroke:#000000;stroke-linecap:square;stroke-linejoin:miter;stroke-width:0.8;"/>
   </g>
   <g id="text_18">
    <!-- Mean -->
    <defs>
     <path d="M 9.8125 72.90625 
L 24.515625 72.90625 
L 43.109375 23.296875 
L 61.8125 72.90625 
L 76.515625 72.90625 
L 76.515625 0 
L 66.890625 0 
L 66.890625 64.015625 
L 48.09375 14.015625 
L 38.1875 14.015625 
L 19.390625 64.015625 
L 19.390625 0 
L 9.8125 0 
z
" id="DejaVuSans-77"/>
     <path d="M 54.890625 33.015625 
L 54.890625 0 
L 45.90625 0 
L 45.90625 32.71875 
Q 45.90625 40.484375 42.875 44.328125 
Q 39.84375 48.1875 33.796875 48.1875 
Q 26.515625 48.1875 22.3125 43.546875 
Q 18.109375 38.921875 18.109375 30.90625 
L 18.109375 0 
L 9.078125 0 
L 9.078125 54.6875 
L 18.109375 54.6875 
L 18.109375 46.1875 
Q 21.34375 51.125 25.703125 53.5625 
Q 30.078125 56 35.796875 56 
Q 45.21875 56 50.046875 50.171875 
Q 54.890625 44.34375 54.890625 33.015625 
z
" id="DejaVuSans-110"/>
    </defs>
    <g style="fill:#808080;" transform="translate(197.968101 303.13092)scale(0.12 -0.12)">
     <use xlink:href="#DejaVuSans-77"/>
     <use x="86.279297" xlink:href="#DejaVuSans-101"/>
     <use x="147.802734" xlink:href="#DejaVuSans-97"/>
     <use x="209.082031" xlink:href="#DejaVuSans-110"/>
    </g>
   </g>
   <g id="text_19">
    <!-- Entwicklung der Fallzahlen in Deutschland -->
    <defs>
     <path d="M 9.8125 72.90625 
L 55.90625 72.90625 
L 55.90625 64.59375 
L 19.671875 64.59375 
L 19.671875 43.015625 
L 54.390625 43.015625 
L 54.390625 34.71875 
L 19.671875 34.71875 
L 19.671875 8.296875 
L 56.78125 8.296875 
L 56.78125 0 
L 9.8125 0 
z
" id="DejaVuSans-69"/>
     <path d="M 4.203125 54.6875 
L 13.1875 54.6875 
L 24.421875 12.015625 
L 35.59375 54.6875 
L 46.1875 54.6875 
L 57.421875 12.015625 
L 68.609375 54.6875 
L 77.59375 54.6875 
L 63.28125 0 
L 52.6875 0 
L 40.921875 44.828125 
L 29.109375 0 
L 18.5 0 
z
" id="DejaVuSans-119"/>
     <path d="M 9.421875 54.6875 
L 18.40625 54.6875 
L 18.40625 0 
L 9.421875 0 
z
M 9.421875 75.984375 
L 18.40625 75.984375 
L 18.40625 64.59375 
L 9.421875 64.59375 
z
" id="DejaVuSans-105"/>
     <path d="M 48.78125 52.59375 
L 48.78125 44.1875 
Q 44.96875 46.296875 41.140625 47.34375 
Q 37.3125 48.390625 33.40625 48.390625 
Q 24.65625 48.390625 19.8125 42.84375 
Q 14.984375 37.3125 14.984375 27.296875 
Q 14.984375 17.28125 19.8125 11.734375 
Q 24.65625 6.203125 33.40625 6.203125 
Q 37.3125 6.203125 41.140625 7.25 
Q 44.96875 8.296875 48.78125 10.40625 
L 48.78125 2.09375 
Q 45.015625 0.34375 40.984375 -0.53125 
Q 36.96875 -1.421875 32.421875 -1.421875 
Q 20.0625 -1.421875 12.78125 6.34375 
Q 5.515625 14.109375 5.515625 27.296875 
Q 5.515625 40.671875 12.859375 48.328125 
Q 20.21875 56 33.015625 56 
Q 37.15625 56 41.109375 55.140625 
Q 45.0625 54.296875 48.78125 52.59375 
z
" id="DejaVuSans-99"/>
     <path d="M 9.078125 75.984375 
L 18.109375 75.984375 
L 18.109375 31.109375 
L 44.921875 54.6875 
L 56.390625 54.6875 
L 27.390625 29.109375 
L 57.625 0 
L 45.90625 0 
L 18.109375 26.703125 
L 18.109375 0 
L 9.078125 0 
z
" id="DejaVuSans-107"/>
     <path d="M 5.515625 54.6875 
L 48.1875 54.6875 
L 48.1875 46.484375 
L 14.40625 7.171875 
L 48.1875 7.171875 
L 48.1875 0 
L 4.296875 0 
L 4.296875 8.203125 
L 38.09375 47.515625 
L 5.515625 47.515625 
z
" id="DejaVuSans-122"/>
     <path d="M 54.890625 33.015625 
L 54.890625 0 
L 45.90625 0 
L 45.90625 32.71875 
Q 45.90625 40.484375 42.875 44.328125 
Q 39.84375 48.1875 33.796875 48.1875 
Q 26.515625 48.1875 22.3125 43.546875 
Q 18.109375 38.921875 18.109375 30.90625 
L 18.109375 0 
L 9.078125 0 
L 9.078125 75.984375 
L 18.109375 75.984375 
L 18.109375 46.1875 
Q 21.34375 51.125 25.703125 53.5625 
Q 30.078125 56 35.796875 56 
Q 45.21875 56 50.046875 50.171875 
Q 54.890625 44.34375 54.890625 33.015625 
z
" id="DejaVuSans-104"/>
     <path d="M 44.28125 53.078125 
L 44.28125 44.578125 
Q 40.484375 46.53125 36.375 47.5 
Q 32.28125 48.484375 27.875 48.484375 
Q 21.1875 48.484375 17.84375 46.4375 
Q 14.5 44.390625 14.5 40.28125 
Q 14.5 37.15625 16.890625 35.375 
Q 19.28125 33.59375 26.515625 31.984375 
L 29.59375 31.296875 
Q 39.15625 29.25 43.1875 25.515625 
Q 47.21875 21.78125 47.21875 15.09375 
Q 47.21875 7.46875 41.1875 3.015625 
Q 35.15625 -1.421875 24.609375 -1.421875 
Q 20.21875 -1.421875 15.453125 -0.5625 
Q 10.6875 0.296875 5.421875 2 
L 5.421875 11.28125 
Q 10.40625 8.6875 15.234375 7.390625 
Q 20.0625 6.109375 24.8125 6.109375 
Q 31.15625 6.109375 34.5625 8.28125 
Q 37.984375 10.453125 37.984375 14.40625 
Q 37.984375 18.0625 35.515625 20.015625 
Q 33.0625 21.96875 24.703125 23.78125 
L 21.578125 24.515625 
Q 13.234375 26.265625 9.515625 29.90625 
Q 5.8125 33.546875 5.8125 39.890625 
Q 5.8125 47.609375 11.28125 51.796875 
Q 16.75 56 26.8125 56 
Q 31.78125 56 36.171875 55.265625 
Q 40.578125 54.546875 44.28125 53.078125 
z
" id="DejaVuSans-115"/>
    </defs>
    <g transform="translate(205.30875 45.84)scale(0.12 -0.12)">
     <use xlink:href="#DejaVuSans-69"/>
     <use x="63.183594" xlink:href="#DejaVuSans-110"/>
     <use x="126.5625" xlink:href="#DejaVuSans-116"/>
     <use x="165.771484" xlink:href="#DejaVuSans-119"/>
     <use x="247.558594" xlink:href="#DejaVuSans-105"/>
     <use x="275.341797" xlink:href="#DejaVuSans-99"/>
     <use x="330.322266" xlink:href="#DejaVuSans-107"/>
     <use x="388.232422" xlink:href="#DejaVuSans-108"/>
     <use x="416.015625" xlink:href="#DejaVuSans-117"/>
     <use x="479.394531" xlink:href="#DejaVuSans-110"/>
     <use x="542.773438" xlink:href="#DejaVuSans-103"/>
     <use x="606.25" xlink:href="#DejaVuSans-32"/>
     <use x="638.037109" xlink:href="#DejaVuSans-100"/>
     <use x="701.513672" xlink:href="#DejaVuSans-101"/>
     <use x="763.037109" xlink:href="#DejaVuSans-114"/>
     <use x="804.150391" xlink:href="#DejaVuSans-32"/>
     <use x="835.9375" xlink:href="#DejaVuSans-70"/>
     <use x="884.332031" xlink:href="#DejaVuSans-97"/>
     <use x="945.611328" xlink:href="#DejaVuSans-108"/>
     <use x="973.394531" xlink:href="#DejaVuSans-108"/>
     <use x="1001.177734" xlink:href="#DejaVuSans-122"/>
     <use x="1053.667969" xlink:href="#DejaVuSans-97"/>
     <use x="1114.947266" xlink:href="#DejaVuSans-104"/>
     <use x="1178.326172" xlink:href="#DejaVuSans-108"/>
     <use x="1206.109375" xlink:href="#DejaVuSans-101"/>
     <use x="1267.632812" xlink:href="#DejaVuSans-110"/>
     <use x="1331.011719" xlink:href="#DejaVuSans-32"/>
     <use x="1362.798828" xlink:href="#DejaVuSans-105"/>
     <use x="1390.582031" xlink:href="#DejaVuSans-110"/>
     <use x="1453.960938" xlink:href="#DejaVuSans-32"/>
     <use x="1485.748047" xlink:href="#DejaVuSans-68"/>
     <use x="1562.75" xlink:href="#DejaVuSans-101"/>
     <use x="1624.273438" xlink:href="#DejaVuSans-117"/>
     <use x="1687.652344" xlink:href="#DejaVuSans-116"/>
     <use x="1726.861328" xlink:href="#DejaVuSans-115"/>
     <use x="1778.960938" xlink:href="#DejaVuSans-99"/>
     <use x="1833.941406" xlink:href="#DejaVuSans-104"/>
     <use x="1897.320312" xlink:href="#DejaVuSans-108"/>
     <use x="1925.103516" xlink:href="#DejaVuSans-97"/>
     <use x="1986.382812" xlink:href="#DejaVuSans-110"/>
     <use x="2049.761719" xlink:href="#DejaVuSans-100"/>
    </g>
   </g>
  </g>
 </g>
 <defs>
  <clipPath id="pdce5141124">
   <rect height="332.64" width="502.2" x="81" y="51.84"/>
  </clipPath>
 </defs>
</svg>
