<?xml version="1.0" encoding="UTF-8" standalone="no"?>
<!DOCTYPE svg PUBLIC "-//W3C//DTD SVG 1.1//EN"
 "http://www.w3.org/Graphics/SVG/1.1/DTD/svg11.dtd">
<!-- Generated by graphviz version 2.38.0 (20140413.2041)
 -->
<!-- Title: G Pages: 1 -->
<svg width="821pt" height="405pt"
 viewBox="0.00 0.00 615.50 304.00" xmlns="http://www.w3.org/2000/svg" xmlns:xlink="http://www.w3.org/1999/xlink">
<g id="graph0" class="graph" transform="scale(1.33333 1.33333) rotate(0) translate(4 300)">
<title>G</title>
<polygon fill="white" stroke="none" points="-4,4 -4,-300 611.5,-300 611.5,4 -4,4"/>
<!-- 2912743332592 -->
<g id="node1" class="node"><title>2912743332592</title>
<polygon fill="none" stroke="black" points="0,-249.5 0,-295.5 296,-295.5 296,-249.5 0,-249.5"/>
<text text-anchor="middle" x="66.5" y="-268.8" font-family="Times New Roman,serif" font-size="14.00">input_35: InputLayer</text>
<polyline fill="none" stroke="black" points="133,-249.5 133,-295.5 "/>
<text text-anchor="middle" x="161" y="-280.3" font-family="Times New Roman,serif" font-size="14.00">input:</text>
<polyline fill="none" stroke="black" points="133,-272.5 189,-272.5 "/>
<text text-anchor="middle" x="161" y="-257.3" font-family="Times New Roman,serif" font-size="14.00">output:</text>
<polyline fill="none" stroke="black" points="189,-249.5 189,-295.5 "/>
<text text-anchor="middle" x="242.5" y="-280.3" font-family="Times New Roman,serif" font-size="14.00">[(None, 396, 1)]</text>
<polyline fill="none" stroke="black" points="189,-272.5 296,-272.5 "/>
<text text-anchor="middle" x="242.5" y="-257.3" font-family="Times New Roman,serif" font-size="14.00">[(None, 396, 1)]</text>
</g>
<!-- 2912743330432 -->
<g id="node2" class="node"><title>2912743330432</title>
<polygon fill="none" stroke="black" points="15.5,-166.5 15.5,-212.5 280.5,-212.5 280.5,-166.5 15.5,-166.5"/>
<text text-anchor="middle" x="68" y="-185.8" font-family="Times New Roman,serif" font-size="14.00">lstm_17: LSTM</text>
<polyline fill="none" stroke="black" points="120.5,-166.5 120.5,-212.5 "/>
<text text-anchor="middle" x="148.5" y="-197.3" font-family="Times New Roman,serif" font-size="14.00">input:</text>
<polyline fill="none" stroke="black" points="120.5,-189.5 176.5,-189.5 "/>
<text text-anchor="middle" x="148.5" y="-174.3" font-family="Times New Roman,serif" font-size="14.00">output:</text>
<polyline fill="none" stroke="black" points="176.5,-166.5 176.5,-212.5 "/>
<text text-anchor="middle" x="228.5" y="-197.3" font-family="Times New Roman,serif" font-size="14.00">(None, 396, 1)</text>
<polyline fill="none" stroke="black" points="176.5,-189.5 280.5,-189.5 "/>
<text text-anchor="middle" x="228.5" y="-174.3" font-family="Times New Roman,serif" font-size="14.00">(None, 396, 60)</text>
</g>
<!-- 2912743332592&#45;&gt;2912743330432 -->
<g id="edge1" class="edge"><title>2912743332592&#45;&gt;2912743330432</title>
<path fill="none" stroke="black" d="M148,-249.366C148,-241.152 148,-231.658 148,-222.725"/>
<polygon fill="black" stroke="black" points="151.5,-222.607 148,-212.607 144.5,-222.607 151.5,-222.607"/>
</g>
<!-- 2912743333504 -->
<g id="node4" class="node"><title>2912743333504</title>
<polygon fill="none" stroke="black" points="75,-83.5 75,-129.5 525,-129.5 525,-83.5 75,-83.5"/>
<text text-anchor="middle" x="164.5" y="-102.8" font-family="Times New Roman,serif" font-size="14.00">concatenate_14: Concatenate</text>
<polyline fill="none" stroke="black" points="254,-83.5 254,-129.5 "/>
<text text-anchor="middle" x="282" y="-114.3" font-family="Times New Roman,serif" font-size="14.00">input:</text>
<polyline fill="none" stroke="black" points="254,-106.5 310,-106.5 "/>
<text text-anchor="middle" x="282" y="-91.3" font-family="Times New Roman,serif" font-size="14.00">output:</text>
<polyline fill="none" stroke="black" points="310,-83.5 310,-129.5 "/>
<text text-anchor="middle" x="417.5" y="-114.3" font-family="Times New Roman,serif" font-size="14.00">[(None, 396, 60), (None, 396, 401)]</text>
<polyline fill="none" stroke="black" points="310,-106.5 525,-106.5 "/>
<text text-anchor="middle" x="417.5" y="-91.3" font-family="Times New Roman,serif" font-size="14.00">(None, 396, 461)</text>
</g>
<!-- 2912743330432&#45;&gt;2912743333504 -->
<g id="edge2" class="edge"><title>2912743330432&#45;&gt;2912743333504</title>
<path fill="none" stroke="black" d="M189.535,-166.366C208.05,-156.5 230.027,-144.788 249.485,-134.419"/>
<polygon fill="black" stroke="black" points="251.336,-137.399 258.516,-129.607 248.044,-131.221 251.336,-137.399"/>
</g>
<!-- 2912743332976 -->
<g id="node3" class="node"><title>2912743332976</title>
<polygon fill="none" stroke="black" points="298.5,-166.5 298.5,-212.5 607.5,-212.5 607.5,-166.5 298.5,-166.5"/>
<text text-anchor="middle" x="365" y="-185.8" font-family="Times New Roman,serif" font-size="14.00">input_36: InputLayer</text>
<polyline fill="none" stroke="black" points="431.5,-166.5 431.5,-212.5 "/>
<text text-anchor="middle" x="459.5" y="-197.3" font-family="Times New Roman,serif" font-size="14.00">input:</text>
<polyline fill="none" stroke="black" points="431.5,-189.5 487.5,-189.5 "/>
<text text-anchor="middle" x="459.5" y="-174.3" font-family="Times New Roman,serif" font-size="14.00">output:</text>
<polyline fill="none" stroke="black" points="487.5,-166.5 487.5,-212.5 "/>
<text text-anchor="middle" x="547.5" y="-197.3" font-family="Times New Roman,serif" font-size="14.00">[(None, 396, 401)]</text>
<polyline fill="none" stroke="black" points="487.5,-189.5 607.5,-189.5 "/>
<text text-anchor="middle" x="547.5" y="-174.3" font-family="Times New Roman,serif" font-size="14.00">[(None, 396, 401)]</text>
</g>
<!-- 2912743332976&#45;&gt;2912743333504 -->
<g id="edge3" class="edge"><title>2912743332976&#45;&gt;2912743333504</title>
<path fill="none" stroke="black" d="M411.192,-166.366C392.555,-156.5 370.433,-144.788 350.848,-134.419"/>
<polygon fill="black" stroke="black" points="352.233,-131.193 341.757,-129.607 348.958,-137.379 352.233,-131.193"/>
</g>
<!-- 2912745506944 -->
<g id="node5" class="node"><title>2912745506944</title>
<polygon fill="none" stroke="black" points="161,-0.5 161,-46.5 439,-46.5 439,-0.5 161,-0.5"/>
<text text-anchor="middle" x="216.5" y="-19.8" font-family="Times New Roman,serif" font-size="14.00">dense_31: Dense</text>
<polyline fill="none" stroke="black" points="272,-0.5 272,-46.5 "/>
<text text-anchor="middle" x="300" y="-31.3" font-family="Times New Roman,serif" font-size="14.00">input:</text>
<polyline fill="none" stroke="black" points="272,-23.5 328,-23.5 "/>
<text text-anchor="middle" x="300" y="-8.3" font-family="Times New Roman,serif" font-size="14.00">output:</text>
<polyline fill="none" stroke="black" points="328,-0.5 328,-46.5 "/>
<text text-anchor="middle" x="383.5" y="-31.3" font-family="Times New Roman,serif" font-size="14.00">(None, 396, 461)</text>
<polyline fill="none" stroke="black" points="328,-23.5 439,-23.5 "/>
<text text-anchor="middle" x="383.5" y="-8.3" font-family="Times New Roman,serif" font-size="14.00">(None, 396, 1)</text>
</g>
<!-- 2912743333504&#45;&gt;2912745506944 -->
<g id="edge4" class="edge"><title>2912743333504&#45;&gt;2912745506944</title>
<path fill="none" stroke="black" d="M300,-83.3664C300,-75.1516 300,-65.6579 300,-56.7252"/>
<polygon fill="black" stroke="black" points="303.5,-56.6068 300,-46.6068 296.5,-56.6069 303.5,-56.6068"/>
</g>
</g>
</svg>
