<?xml version="1.0" encoding="UTF-8" standalone="no"?>
<!DOCTYPE svg PUBLIC "-//W3C//DTD SVG 1.1//EN" "http://www.w3.org/Graphics/SVG/1.1/DTD/svg11.dtd">
<svg width="100%" height="100%" viewBox="0 0 160 160" version="1.1" xmlns="http://www.w3.org/2000/svg" xmlns:xlink="http://www.w3.org/1999/xlink" xml:space="preserve" xmlns:serif="http://www.serif.com/" style="fill-rule:evenodd;clip-rule:evenodd;stroke-linecap:round;stroke-linejoin:round;stroke-miterlimit:2;">
    <g transform="matrix(0.257024,0,0,0.257024,20.7788,-0.397615)">
        <path d="M457.534,289.16C456.454,286.981 454.279,283.174 455.365,280.994C456.454,278.821 455.365,275.285 452.643,276.1C449.922,276.914 447.743,275.009 446.111,274.196C445.135,273.708 443.683,272.547 442.666,271.688L443.448,271.425L442.594,270.666C443.167,270.15 443.991,269.354 444.522,268.646C445.553,267.283 445.483,266.72 444.629,264.171C444.409,263.507 444.293,262.889 444.186,262.344C443.918,260.918 443.664,259.569 441.665,259.07C439.977,258.647 439.749,257.721 439.252,255.697L439.208,255.523C438.839,254.044 438.033,253.223 437.26,252.427C436.749,251.906 436.27,251.411 435.868,250.713C435.052,249.287 435.222,249.119 436.837,247.508C438.357,245.991 440.642,242.709 440.307,240.365C440.239,239.877 440.154,239.46 440.077,239.081C439.851,237.99 439.737,237.443 440.239,236.438C440.346,236.214 440.495,235.955 440.652,235.668C441.713,233.737 443.493,230.505 441.107,228.725C438.436,226.717 437.482,225.136 438.276,224.023C439.142,222.802 439.357,222.191 439.095,221.684C438.945,221.394 438.652,221.221 438.317,221.221L438.296,221.221C438.044,221.131 437.653,220.922 437.562,220.65L437.556,220.631C437.604,220.587 437.679,220.531 437.736,220.485C437.97,220.305 438.286,220.058 438.559,219.652C439.044,218.924 438.855,217.83 438.515,217.047C438.03,215.923 437.156,215.155 436.172,214.99C435.943,214.951 435.678,214.91 435.396,214.869C434.392,214.721 431.728,214.326 431.597,213.66C431.472,213.041 431.208,212.402 430.932,211.725C430.552,210.796 430.12,209.745 429.968,208.546C429.832,207.444 429.3,206.749 428.87,206.19C428.331,205.491 428.111,205.2 428.54,204.337C429.303,202.81 429.76,202.304 430.508,201.465C430.781,201.164 431.086,200.825 431.437,200.397C432.798,198.76 432.564,197.861 432.073,196.529C432.003,196.335 431.921,196.125 431.846,195.892C431.377,194.494 431.625,192.938 432.404,192.352C432.749,192.097 432.941,191.718 432.947,191.287C432.973,189.953 431.049,188.137 429.428,186.848C428.86,186.39 427.898,186.024 426.784,185.598C424.99,184.912 422.75,184.058 421.997,182.706C421.563,181.921 421.301,181.22 421.073,180.602C420.592,179.312 420.183,178.198 418.571,177.737C417.624,177.466 417.061,177.047 416.348,176.516C415.752,176.073 415.078,175.57 414.065,175.065C412.079,174.072 410.532,172.036 410.515,172.015L410.278,171.702L409.886,171.727C409.875,171.727 409.749,171.734 409.552,171.734C408.292,171.734 407.263,171.467 406.933,171.054C406.849,170.949 406.761,170.783 406.838,170.434C407.02,169.611 407.269,169.023 407.488,168.504C407.902,167.519 408.261,166.667 407.592,165.327C406.375,162.883 406.968,162.07 407.62,161.636C410.477,159.728 412.362,158.212 413.225,157.13C413.37,156.949 413.541,156.74 413.727,156.515C415.409,154.47 416.919,152.508 416.919,150.958C416.919,149.307 416.643,145.449 416.363,143.768C416.145,142.449 416.276,141.831 417.569,140.272C418.408,139.266 419.381,137.768 419.239,136.349C419.168,135.661 418.836,135.061 418.277,134.615C417.155,133.718 416.919,132.358 416.919,131.375L416.919,130.646L416.83,130.646C416.481,128.712 415.175,124.455 414.62,123.624C414.383,123.27 413.983,122.029 413.63,120.935C413.27,119.818 412.897,118.661 412.509,117.759C412.335,117.349 412.12,116.918 411.901,116.471C411.139,114.917 410.276,113.158 410.64,111.694C411.116,109.809 410.079,106.983 409.393,105.112C409.215,104.627 409.061,104.211 409.008,103.995L408.993,103.935L408.967,103.879C408.957,103.854 407.932,101.521 407.8,99.765C407.726,98.627 407.313,97.863 406.857,97.12L406.642,96.77L406.186,96.77L406.167,96.773C405.916,96.729 405.711,96.71 405.514,96.71C404.65,96.71 403.946,97.081 403.477,97.784L403.321,98.02C402.932,98.621 402.828,98.782 401.904,98.968C401.498,99.048 401.072,99.09 400.64,99.09C399.756,99.09 398.798,98.919 397.788,98.582C397.354,98.438 396.911,98.312 396.472,98.188C395.32,97.862 394.23,97.553 393.552,96.956C392.929,96.415 392.282,96.111 391.659,95.818C391.073,95.541 390.469,95.258 389.849,94.761C389.173,94.222 389.035,93.663 389.016,93.369C389.048,93.341 389.077,93.315 389.107,93.289C389.496,92.944 389.511,92.931 390.617,92.931L391.157,92.935L391.556,92.939C392.639,92.939 393.235,92.795 394.127,91.904C394.545,91.487 394.764,91.081 394.941,90.752C395.216,90.246 395.281,90.128 395.852,90.078C396.568,90.012 397.204,90.012 397.878,90.012C398.567,90.012 399.348,90.012 400.325,89.94C400.864,89.902 401.599,89.881 402.512,89.881C403.001,89.881 403.491,89.887 403.933,89.895L404.717,89.909L404.675,89.124L404.406,84.276L404.392,84.013L404.213,83.818C404.079,83.673 400.888,80.224 399.76,79.379C399.357,79.075 398.818,78.505 398.246,77.905C397.378,76.99 396.394,75.954 395.377,75.275C395.003,75.027 394.674,74.777 394.355,74.535C393.24,73.691 392.187,72.893 389.946,72.443C389.392,72.333 388.949,72.266 388.582,72.211C387.265,72.012 387.186,72.001 386.053,70.308C385.417,69.353 384.943,68.374 384.562,67.587C383.904,66.232 383.47,65.335 382.586,65.335C382.467,65.335 382.345,65.355 382.229,65.395C381.316,65.698 380.776,67.291 380.471,68.742C380.266,68.705 379.899,68.581 379.329,68.2C378.515,67.659 377.8,67.408 377.083,67.408C375.922,67.408 374.926,68.105 374.103,68.787C372.719,69.944 370.324,70.254 369.129,70.254C368.463,70.254 368.155,70.594 368.033,70.797C367.653,71.416 367.967,72.208 368.391,73.057C368.019,72.816 367.527,72.431 366.923,71.829C364.963,69.871 364.693,68.698 364.693,67.72C364.693,67.412 364.581,66.406 363.131,66.406C362.886,66.406 362.613,66.431 362.34,66.459C362.118,66.482 361.899,66.505 361.7,66.505C361.541,66.505 361.479,66.488 361.47,66.484C361.102,66.314 360.4,64.784 360.101,64.133C359.962,63.827 359.832,63.545 359.715,63.312C359.708,63.3 359.704,63.291 359.697,63.279C359.9,63.39 360.102,63.517 360.305,63.644C360.992,64.073 361.702,64.517 362.52,64.517C362.851,64.517 363.17,64.441 363.468,64.293C364.407,63.823 365.538,62.532 365.728,61.362C365.822,60.767 365.667,60.233 365.29,59.856C365.055,59.619 364.915,59.452 364.824,59.303L364.381,58.575C364.398,58.568 364.413,58.562 364.428,58.556L364.72,58.435L364.832,58.139L364.878,58.014L364.911,57.921C365.03,57.623 365.113,57.371 365.185,57.153C365.404,56.487 365.442,56.367 366.458,55.858C366.973,55.602 367.332,55.397 367.612,55.237C368.078,54.971 368.234,54.882 368.553,54.856C368.508,54.987 368.461,55.135 368.419,55.3C368.374,55.486 368.278,55.87 368.53,56.192L368.749,56.472L369.126,56.482C369.573,56.482 369.786,56.203 370.354,55.46C370.756,54.932 371.306,54.21 371.743,53.881C371.78,53.852 371.81,53.832 371.837,53.816C371.874,53.861 371.917,53.919 371.949,53.962C372.161,54.247 372.454,54.636 372.978,54.809C373.113,54.855 373.258,54.878 373.411,54.878C374.121,54.878 374.935,54.341 375.513,53.868C375.772,54.309 375.955,54.73 375.973,54.941C374.896,55.783 375.388,57.736 375.503,58.129L375.585,58.417L375.848,58.565C375.993,58.646 377.289,59.351 378.264,59.351C378.966,59.351 379.477,58.987 379.631,58.378C379.926,57.182 379.926,55.718 379.638,54.775C379.641,54.773 379.643,54.771 379.645,54.77C379.902,54.588 380.332,54.285 380.663,53.624C381.38,52.19 379.85,51.05 378.5,50.045C378.244,49.853 377.986,49.661 377.746,49.47C377.107,48.956 376.43,48.527 375.681,48.161L375.412,48.03L375.131,48.124C374.83,48.223 374.658,48.244 374.563,48.244C374.44,48.244 374.396,48.244 374.106,47.759L373.951,47.501L373.659,47.426C373.389,47.357 373.118,47.137 372.832,46.754L372.735,46.625L372.593,46.548C372.506,46.502 372.45,46.472 372.385,46.431C372.045,46.236 371.737,46.152 371.426,46.152C370.836,46.152 370.386,46.445 369.95,46.732C369.696,46.898 369.434,47.07 369.142,47.179C369.034,47.221 368.934,47.242 368.853,47.242C368.651,47.242 368.458,47.101 368.111,46.829C367.886,46.654 367.631,46.456 367.315,46.276C366.838,46.006 366.849,45.426 366.993,44.072L366.999,43.994C367.142,42.561 366.575,42.146 365.68,41.964C365.559,41.939 365.424,41.913 365.278,41.865C364.661,41.656 364.319,41.543 363.989,40.205C363.804,39.468 363.574,38.559 362.699,38.559C362.523,38.559 362.375,38.601 362.246,38.638C362.134,38.672 362.037,38.698 361.921,38.698C361.627,38.698 361.257,38.119 361.152,37.046C361.083,36.368 360.978,35.346 359.958,35.346C359.729,35.346 359.5,35.405 359.21,35.481C359.083,35.515 358.935,35.552 358.767,35.592C358.469,35.656 358.147,35.742 357.893,35.918C358.177,35.698 358.435,35.44 358.672,35.202C358.951,34.924 359.27,34.608 359.472,34.529C359.689,34.441 360.127,34.261 361.72,32.231L361.879,32.029L361.875,31.769C361.863,30.947 362.153,30.3 362.846,29.607C364.193,28.253 363.872,26.568 363.858,26.497L363.754,25.983L363.233,25.918C363.217,25.915 362.832,25.868 362.271,25.868C361.387,25.868 360.105,25.983 359.007,26.53C358.354,26.857 357.693,27.095 357.054,27.326C356.132,27.658 355.26,27.973 354.545,28.507C353.298,29.44 352.71,31.394 352.649,31.613L352.253,32.991L353.599,32.499L355.881,31.666C355.95,32.149 355.922,32.924 355.418,33.931C355.024,34.716 354.769,35.39 354.563,35.933L354.249,36.767L354.047,36.993C353.992,37.054 353.965,37.062 353.896,37.062C353.704,37.062 353.505,36.962 353.293,36.858C353.043,36.734 352.762,36.594 352.427,36.594C351.454,36.594 351.149,37.678 351.016,38.142C350.743,39.086 350.716,40.057 350.692,40.913L350.688,41.019L350.666,41.446C350.651,41.734 350.609,42.497 350.385,42.72C349.606,43.5 348.811,44.494 348.811,45.96C348.811,47.102 349.492,47.96 350.506,48.096L351.162,48.184L351.21,47.981L351.307,48.011C351.325,48.023 351.423,48.115 351.496,48.182C351.882,48.537 352.528,49.133 353.896,49.133C354.602,49.133 355.538,50.304 355.538,51.187C355.538,51.4 355.538,51.757 354.709,51.757C352.036,51.757 350.625,51.971 350.289,52.029L349.689,52.029L349.574,52.694C349.519,53.303 349.491,53.814 349.491,54.254C349.491,55.927 350.623,56.56 351.533,57.07L351.766,57.202C351.923,57.291 352.079,57.378 352.236,57.464C352.989,57.875 353.642,58.234 354.116,58.896C354.661,59.661 355.207,60.044 355.9,60.53C356.179,60.726 356.49,60.944 356.853,61.225C357.259,61.541 357.655,61.697 358.061,61.697C359.003,61.697 359.578,60.881 360.133,60.092C360.277,59.886 360.427,59.672 360.59,59.462C360.707,59.313 360.79,59.218 360.846,59.161C361.031,59.24 361.314,59.35 361.712,59.35C361.804,59.35 361.902,59.344 362.009,59.331C362.471,59.275 363.137,59.07 364.09,58.693L363.647,59.206L363.519,59.359L363.41,59.492C362.102,60.908 360.235,61.711 359.704,61.841L358.454,62.148C357.834,61.892 357.103,61.835 356.383,61.825L356.382,61.67C355.43,61.572 354.637,61.439 354.26,61.313C352.426,60.702 351.198,59.954 350.887,59.258C350.529,58.449 349.599,56.45 348.749,55.423C348.641,55.219 348.68,54.212 349.288,52.415L349.419,52.023L349.153,51.708C348.931,51.055 348.183,50.813 347.317,50.534C345.903,50.077 345.504,49.818 345.618,49.422C345.841,48.641 345.625,48.129 345.404,47.836C345.021,47.326 344.339,47.065 343.378,47.06L343.015,47.059L342.9,47.21L342.193,46.899C341.597,46.655 340.939,46.532 340.244,46.532C339.959,46.532 339.668,46.554 339.375,46.595C337.478,46.866 333.467,47.133 331.858,47.133C331.36,47.133 330.632,47.179 329.789,47.232C328.735,47.297 327.538,47.373 326.539,47.373C325.266,47.373 324.913,47.246 324.835,47.208C324.563,47.072 324.235,46.557 323.97,46.146C323.508,45.423 322.982,44.604 322.104,44.604C321.888,44.604 321.674,44.656 321.467,44.76C320.223,45.384 319.272,46.818 318.645,49.022C318.227,50.476 317.824,51.059 317.088,52.119C316.928,52.351 316.751,52.605 316.559,52.891C315.366,54.694 314.266,56.359 314.266,57.926C314.266,58.677 313.785,59.053 312.864,59.709C312.703,59.824 312.539,59.941 312.374,60.062C311.576,60.665 309.775,62.121 308.328,63.292L306.915,64.43C305.398,65.646 304.253,67.975 303.963,68.85L303.931,68.95C303.777,69.428 303.75,69.513 302.116,69.715C301.554,69.785 300.948,69.797 300.305,69.812C298.528,69.849 296.516,69.891 294.931,71.243C294.5,71.612 294.125,71.967 293.783,72.29C292.844,73.178 292.326,73.639 291.749,73.639C291.606,73.639 291.453,73.611 291.282,73.555C290.824,73.403 290.499,73.138 290.121,72.832C289.514,72.337 288.825,71.778 287.604,71.777C287.272,71.777 286.925,71.819 286.541,71.903C285.686,72.092 285.137,72.104 284.695,72.111C283.8,72.128 283.217,72.195 282.54,73.33C282.263,73.788 281.857,74.156 281.464,74.51C280.968,74.956 280.502,75.378 280.315,75.965L280.233,76.225L280.342,76.476C280.562,76.985 280.774,77.734 280.641,78.567C280.46,77.992 279.922,77.657 279.411,77.403C279.078,77.239 278.817,77.166 278.562,77.166C278.025,77.166 277.704,77.487 277.42,77.771C277.305,77.885 277.167,78.022 276.984,78.176C276.055,78.95 276.109,79.825 276.155,80.528C276.167,80.692 276.177,80.866 276.177,81.049L276.177,81.35L276.389,81.563L276.797,81.97L277.193,82.37L277.681,82.087C277.751,82.045 278.042,81.873 278.414,81.627C278.237,81.827 278.066,82.051 277.912,82.309L277.784,82.523C277.647,82.751 277.507,82.987 277.439,83.061C277.435,83.06 277.427,83.058 277.412,83.058C277.383,83.058 277.337,83.06 277.27,83.06C277.167,83.06 277.048,83.056 276.906,83.051C276.688,83.046 276.422,83.038 276.09,83.038C274.153,83.038 272.483,83.038 270.905,84.934C270.084,85.92 269.368,87.319 269.821,88.285C270.046,88.77 270.523,89.047 271.126,89.047C271.461,89.047 271.835,88.967 272.271,88.804C273.392,88.383 273.677,88.24 273.832,88.164C273.88,88.139 273.893,88.132 274.1,88.08C274.1,88.083 274.099,88.087 274.099,88.091C274.058,88.491 274.001,89.036 274.001,89.757C274.001,89.979 274.006,90.203 274.008,90.423C274.017,91.153 274.033,92.375 273.814,92.587C273.732,92.578 273.541,92.558 273.157,92.364C272.118,91.848 271.402,91.395 270.769,90.996C270.088,90.565 269.5,90.194 268.746,89.892L267.384,89.35L266.858,89.14L266.524,89.597C266.122,90.145 265.333,90.903 264.891,90.903C264.764,90.903 264.633,90.774 264.504,90.513C263.689,88.888 264.543,87.919 264.642,87.813L265.572,86.835L264.25,86.586C263.009,86.361 261.681,85.82 261.564,85.495C261.23,84.16 258.821,83.807 257.592,83.807C256.734,83.807 255.569,83.945 254.901,84.611C253.844,85.668 250.133,88.308 248.89,88.804C248.627,88.91 248.283,89.05 248.125,89.083C248.018,88.965 247.842,88.676 247.637,88.335C246.877,87.067 245.547,86.735 244.376,86.44C243.938,86.331 243.525,86.225 243.173,86.085C242.624,85.866 241.83,84.98 241.505,83.93C241.358,83.46 241.257,82.791 241.602,82.27C242.621,80.744 243.52,80.149 244.81,80.149C246.787,80.149 249.255,78.85 249.599,77.112C249.795,76.155 250.508,75.751 251.654,75.177L251.936,75.038C254.378,73.83 256.674,72.488 256.953,70.834C257.206,69.319 256.66,67.33 256.298,66.012C256.23,65.766 256.17,65.548 256.126,65.368C255.875,64.361 255.875,60.744 255.875,59.555C255.875,59.28 255.9,58.968 255.924,58.647C255.937,58.467 255.951,58.288 255.96,58.106C256.228,58.295 256.527,58.395 256.84,58.395C257.316,58.395 257.765,58.166 258.105,57.751C258.56,57.195 258.739,56.395 258.582,55.608C258.354,54.485 258.354,54.485 259.625,53.638C260.039,53.363 260.221,53.341 260.267,53.341C260.332,53.341 260.437,53.434 260.604,53.587C260.859,53.821 261.213,54.142 261.764,54.282C262.114,54.369 262.434,54.407 262.713,54.439C263.377,54.519 263.816,54.571 264.421,55.176C264.76,55.517 265.12,55.689 265.494,55.689C266.006,55.689 266.443,55.349 266.635,54.803C266.915,54.005 266.671,52.722 265.667,51.916C265.002,51.386 264.728,50.664 264.439,49.901C264.224,49.335 264.001,48.75 263.613,48.237C263.423,47.984 263.297,47.649 263.163,47.295C262.823,46.399 262.359,45.174 260.492,44.706C258.363,44.169 257.607,43.916 256.333,43.155C255.796,42.832 255.337,42.618 254.839,42.618C253.891,42.618 253.271,43.348 252.143,44.67C251.096,45.889 250.999,46.401 250.97,47.043C250.959,47.313 250.948,47.547 250.683,48.076C250.077,49.289 250.205,49.886 250.436,50.539C250.528,50.798 250.606,51.02 250.606,51.398L250.606,52.016L251.216,52.119C251.24,52.123 251.467,52.158 251.809,52.158C252.449,52.158 253.689,52.027 254.78,51.151C254.913,51.045 255.016,50.969 255.094,50.916C255.101,50.93 255.109,50.946 255.117,50.959C255.234,51.187 255.399,51.499 255.648,51.835C256.045,52.367 255.219,53.55 254.777,54.184C254.686,54.311 254.605,54.429 254.536,54.534C254.364,54.791 254.272,55.045 254.242,55.291C253.84,55.287 253.479,55.26 253.128,55.232C252.737,55.202 252.354,55.172 251.93,55.172C251.428,55.172 250.928,55.215 250.4,55.302C248.165,55.674 246.403,56.366 245.164,57.358C244.698,57.73 244.268,58.298 243.814,58.902C242.87,60.152 241.801,61.566 240.229,61.566C240.145,61.566 240.061,61.562 239.974,61.554C237.763,61.349 236.542,59.95 235.734,59.025C235.555,58.822 235.397,58.642 235.254,58.498C234.253,57.497 229.974,55.85 228.046,55.572C226.826,55.396 225.818,54.683 224.846,53.993C224.471,53.728 224.081,53.453 223.691,53.218C223.417,53.054 220.968,51.622 219.184,51.622C218.274,51.622 217.799,52.003 217.561,52.323C217.285,52.688 216.601,52.984 215.939,53.273C215.457,53.48 214.967,53.694 214.551,53.967C214.507,53.883 214.456,53.798 214.401,53.712C213.702,52.665 213.807,52.273 213.821,52.233C213.827,52.212 213.85,52.148 214.023,52.091C214.498,51.93 214.79,51.551 214.803,51.074C214.83,50.106 213.594,49.007 212.433,48.542C212.196,48.449 211.965,48.344 211.743,48.242C211.049,47.927 210.332,47.604 209.534,47.604C209.055,47.604 208.604,47.717 208.159,47.949C207.352,47.968 204.619,48.11 203.484,49.245C202.688,50.047 200.726,51.161 199.331,51.161C199.044,51.161 198.803,51.114 198.612,51.017C198.524,50.974 198.324,50.86 198.335,50.761C198.379,50.442 199.063,49.81 199.789,49.665L200.112,49.603C201.556,49.327 203.736,48.911 204.904,46.864C205.883,45.154 206.36,43.077 206.36,40.517C206.36,39.21 206.49,38.456 206.671,37.412C206.742,36.995 206.82,36.54 206.901,35.997C206.976,35.475 207.026,34.723 206.608,34.2C206.218,33.713 205.651,33.666 205.237,33.633C205.062,33.619 204.897,33.605 204.779,33.565C204.449,33.457 204.008,33.35 203.586,33.258C203.96,32.74 204.316,32.029 204.45,31.099C204.741,29.072 204.467,27.545 203.542,25.995C202.648,24.509 200.94,23.363 200.868,23.314L199.734,22.559L199.734,23.921C199.734,23.94 199.672,25.912 198.833,25.912C197.385,25.912 196.22,25.448 195.267,24.494C194.096,23.322 192.918,22.987 191.135,22.475L190.875,22.402C189.434,21.993 187.118,20.732 186.231,20.233L186.231,17.483L185.135,18.123C185,18.203 181.804,20.067 180.421,21.177C179.771,21.696 179.311,22.343 178.941,22.862C178.9,22.916 178.86,22.974 178.819,23.033C178.589,22.389 178.409,21.429 178.338,20.839L178.258,20.199L177.613,20.199C177.533,20.199 175.619,20.22 174.059,22.094C173.319,22.985 172.452,23.537 171.796,23.537C171.562,23.537 171.211,23.478 170.873,22.974C170.424,22.299 170.458,21.772 170.493,21.215C170.529,20.645 170.577,19.932 169.966,19.323C169.082,18.434 167.266,17.477 165.373,17.477C163.921,17.477 161.22,17.477 160.03,16.766C159.816,16.637 159.621,16.514 159.439,16.401C158.428,15.765 157.699,15.305 156.123,15.305L149.319,15.305C148.969,15.305 148.526,15.385 148.014,15.475C147.386,15.589 146.676,15.716 146.039,15.716C145.377,15.716 144.949,15.583 144.729,15.306C144.222,14.677 143.548,14.345 142.779,14.345C141.856,14.345 141.11,14.826 141.028,14.879L140.93,14.944L140.857,15.039C140.837,15.064 140.423,15.601 140.024,16.347L132.204,16.119C131.708,16.117 130.643,15.946 130.388,15.435C130.194,15.046 130.194,14.773 130.194,14.23C130.194,13.638 130.194,12.825 129.908,11.522C129.238,8.531 129.687,8.295 129.69,8.292C129.74,8.277 129.807,8.268 129.892,8.268C130.016,8.268 130.142,8.282 130.271,8.295C130.453,8.311 130.636,8.329 130.823,8.329C131.686,8.329 132.336,7.948 132.808,7.159C133.037,6.777 133.494,6.398 133.896,6.065C134.553,5.518 135.172,5.003 135.088,4.257C135.035,3.801 134.717,3.421 134.144,3.133C133.749,2.938 133.38,2.682 133.025,2.434C132.365,1.978 131.742,1.547 131.034,1.547C130.401,1.547 129.852,1.891 129.397,2.568C128.358,4.132 128.213,5.697 128.194,6.128L127.698,7.861C126.375,10.244 125.497,12.249 124.94,15.358C124.507,17.732 124.57,19.787 124.621,21.437C124.637,21.932 124.651,22.397 124.651,22.834C124.651,23.301 124.616,23.796 124.582,24.278C124.468,25.884 124.351,27.545 125.751,27.891C126.03,27.963 126.258,27.995 126.465,27.995C127.035,27.995 127.37,27.737 127.552,27.519C128.028,26.947 128.078,25.978 127.73,24.064L127.667,23.719C127.258,21.472 127.258,21.472 127.82,20.179L127.958,19.858L128.039,19.67C128.235,19.213 128.46,18.69 128.649,18.302C128.677,18.377 128.701,18.454 128.728,18.529C129.011,19.38 129.403,20.545 130.806,20.545C131.196,20.545 131.642,20.449 132.166,20.252C133.841,19.625 134.121,19.465 134.841,19.002C135.025,18.884 135.245,18.743 135.55,18.557C135.94,18.325 136.404,18.216 137.005,18.216C137.405,18.216 137.812,18.265 138.203,18.311C138.574,18.354 138.924,18.395 139.255,18.395L139.285,18.395C139.208,18.913 139.239,19.38 139.378,19.8C139.885,21.318 140.742,23.484 142.334,24.764C142.673,25.034 142.963,25.224 143.205,25.383C143.847,25.804 143.847,25.804 143.703,26.813C143.372,29.167 144.154,31.065 145.605,31.431C146.155,31.567 146.41,32.714 146.41,33.445C146.41,34.28 147.315,34.989 148.363,35.81C148.814,36.164 149.375,36.604 149.533,36.839C149.659,37.03 149.8,37.199 149.933,37.356C150.305,37.792 150.326,37.82 149.839,38.431C149.082,39.376 149.261,40.125 149.435,40.488C149.756,41.157 150.552,41.573 151.517,41.573C151.724,41.573 151.934,41.552 152.14,41.514C152.101,41.574 152.054,41.639 152.002,41.71C151.43,42.471 151.571,43.255 151.676,43.829C151.787,44.444 151.829,44.785 151.472,45.231C151.096,45.699 150.775,45.878 150.436,46.068C149.903,46.365 149.302,46.703 148.9,47.902C148.418,49.345 148.43,50.433 148.938,51.138C149.183,51.479 149.662,51.884 150.557,51.884C150.711,51.884 150.876,51.872 151.055,51.846C151.204,51.824 151.355,51.816 151.503,51.816C151.922,51.816 152.354,51.884 152.771,51.949C153.185,52.014 153.574,52.075 153.954,52.075C155.021,52.075 155.713,51.547 156.011,50.508C156.459,48.92 156.91,47.722 157.351,46.942C157.476,47.164 157.651,47.53 157.894,48.135C158.154,48.782 158.271,49.637 156.836,50.497C155.401,51.354 155.005,52.018 154.285,53.224L154.138,53.469C153.851,53.947 153.706,54.15 153.634,54.228C153.591,54.225 153.553,54.224 153.51,54.222C153.404,54.214 153.278,54.207 153.13,54.207C152.926,54.207 152.601,54.189 152.202,54.167C151.527,54.13 150.69,54.085 149.845,54.085C149.024,54.085 148.366,54.128 147.838,54.217C147.404,54.29 146.834,54.295 146.23,54.302C144.7,54.32 142.795,54.343 141.278,55.427L139.377,56.791L138.326,57.545L139.513,58.053C139.684,58.126 140.955,58.661 142.072,58.857C141.925,58.968 141.753,59.093 141.549,59.238C140.725,59.828 140.265,59.859 139.823,59.889C139.331,59.923 138.719,59.966 138.127,60.751C136.97,62.303 139.368,64.562 139.86,64.998L139.909,65.042L139.966,65.077L140.288,65.272C141.4,65.939 141.668,66.114 141.823,66.587C142.043,67.241 142.517,67.311 142.713,67.311C143.144,67.311 143.426,67.029 143.786,66.671C144.174,66.283 144.707,65.751 145.531,65.399C145.999,65.197 146.637,65.094 147.427,65.094C148.476,65.094 149.504,65.281 149.971,65.377C150.115,65.663 150.392,66.428 150.227,67.913C150.06,69.408 149.928,69.6 149.615,70.063C149.439,70.323 149.219,70.645 148.941,71.202C148.071,72.944 147.948,73.815 149.009,75.231C149.348,75.68 149.363,75.816 149.389,76.06C149.418,76.331 149.459,76.701 149.757,77.297C150.192,78.165 150.933,78.663 151.794,78.663C152.456,78.663 153.15,78.377 153.856,77.812C154.142,77.583 154.267,77.57 154.267,77.57C154.342,77.639 154.55,78.107 154.674,78.386C154.754,78.567 154.838,78.75 154.927,78.928C155.113,79.3 155.329,79.674 155.546,80.046C155.956,80.75 156.344,81.416 156.502,82.046C156.821,83.321 156.793,84.267 156.603,84.509C156.591,84.524 156.581,84.537 156.508,84.537C156.437,84.537 156.309,84.521 156.104,84.443C155.703,84.294 155.352,84.155 155.035,84.028C154.064,83.643 153.362,83.364 152.654,83.364C152.237,83.364 151.84,83.462 151.439,83.662C151.223,83.772 150.993,83.854 150.778,83.933C150.183,84.154 149.51,84.402 149.322,85.08C149.146,85.713 149.533,86.294 149.841,86.677C150.916,88.026 151.681,89.047 152.459,90.857C152.629,91.253 152.774,91.613 152.909,91.946C153.442,93.256 153.825,94.203 154.791,95.169C155.7,96.074 156.732,96.914 158.119,96.914C158.515,96.914 158.93,96.843 159.348,96.705C159.586,96.625 159.868,96.588 160.216,96.588C160.797,96.588 161.454,96.694 162.149,96.809C162.9,96.931 163.677,97.058 164.429,97.058C164.687,97.058 164.923,97.043 165.149,97.014C166.762,97.018 169.579,97.213 170.434,97.726C170.82,97.954 171.223,98.119 171.614,98.28C172.723,98.734 173.679,99.125 174.194,100.844C174.49,101.837 174.745,102.66 174.958,103.335C174.256,102.511 173.351,101.556 172.444,100.908C170.539,99.548 168.64,98.459 166.457,98.733C164.278,99.007 162.101,98.733 160.202,100.093C158.299,101.453 155.848,101.995 152.861,101.453C149.864,100.908 147.961,102.269 146.328,100.363C144.695,98.459 142.249,94.924 140.344,97.1C138.439,99.274 137.081,100.908 136.805,102.541C136.533,104.173 135.449,108.798 134.357,110.7C133.27,112.603 134.085,116.415 135.173,118.046C136.265,119.679 136.805,120.222 136.805,122.4L136.805,126.751C136.805,126.751 135.988,124.576 134.903,123.485C133.816,122.4 134.903,123.485 132.726,122.941C130.55,122.4 130.55,122.941 129.194,121.04C127.827,119.133 126.742,116.415 124.841,117.773C122.933,119.133 122.118,118.861 122.118,120.769C122.118,122.669 122.118,124.031 121.574,125.392C121.027,126.751 122.658,128.114 123.749,126.48C124.841,124.846 125.381,126.206 125.658,128.656C125.926,131.102 125.658,132.19 124.291,133.824C122.933,135.457 121.574,136.547 119.671,134.636C117.764,132.734 118.307,130.836 115.859,130.836C113.413,130.836 112.05,127.565 113.687,127.023C115.319,126.48 117.219,128.114 118.033,126.48C118.854,124.846 119.123,123.759 118.033,121.856C116.949,119.948 116.404,117.499 115.589,116.415C114.772,115.324 112.597,116.415 112.597,113.966C112.597,111.518 113.136,110.976 111.235,110.427C111.235,110.427 109.063,109.614 107.426,109.614C105.796,109.614 104.163,108.798 103.074,109.888C101.989,110.976 98.175,110.427 96.543,111.245C94.913,112.061 89.745,114.236 88.112,113.423C86.48,112.603 83.49,111.792 81.581,112.333C79.678,112.876 75.598,112.333 73.968,113.966C72.335,115.597 69.337,117.773 68.252,119.407C67.168,121.04 67.437,121.856 69.068,122.941C70.7,124.031 70.158,125.118 67.709,124.846C65.26,124.576 65.26,124.846 64.713,127.023C64.175,129.198 64.175,131.375 63.356,133.552C62.544,135.732 61.998,139.266 64.989,139.806C67.982,140.352 72.605,139.536 73.968,140.086C75.324,140.628 74.235,140.086 73.968,142.256C73.697,144.433 73.968,146.064 72.876,147.156C71.791,148.244 73.421,148.516 73.151,150.693C72.876,152.866 72.059,151.505 71.519,153.412C70.975,155.315 71.251,156.132 71.791,158.851C72.335,161.57 73.151,165.652 71.791,168.103C70.429,170.55 68.528,175.173 66.891,177.077C65.26,178.989 64.445,182.522 64.713,184.968C64.989,187.419 63.898,191.226 63.898,192.314C63.898,193.397 63.898,196.67 61.998,195.574C60.095,194.492 58.73,195.033 56.828,194.492C54.922,193.944 53.564,192.854 52.207,193.397C50.843,193.944 47.306,193.127 47.306,195.033C47.306,196.934 47.036,198.572 47.852,199.113C48.667,199.658 49.752,200.203 48.122,201.019C46.491,201.834 46.219,201.563 46.219,203.192C46.219,204.825 46.219,207.274 47.575,207.821C48.938,208.364 52.475,209.72 54.107,210.267C55.739,210.813 58.46,211.625 58.73,210.539C59.006,209.451 60.633,207.004 60.909,209.18C61.182,211.354 62.814,214.075 63.629,214.615C64.445,215.161 64.713,217.887 63.629,219.244C62.544,220.604 61.182,224.415 61.722,225.227C62.025,225.68 62.573,226.128 63.006,226.442L63.005,226.443C62.511,226.835 61.684,227.336 60.533,227.497C58.582,227.777 58.141,228.879 57.784,229.765C57.708,229.952 57.63,230.148 57.534,230.342C57.441,230.528 57.411,230.558 56.862,230.593C56.374,230.625 55.704,230.668 55.031,231.171C54.255,231.755 53.868,232.798 53.494,233.806C53.274,234.398 53.027,235.07 52.776,235.32C52.199,235.898 51.692,235.922 50.022,235.922C47.8,235.922 46.809,237.916 46.386,238.775C46.292,238.752 46.186,238.736 46.067,238.736C45.378,238.736 44.957,239.298 44.817,239.482C44.397,240.041 44.232,240.56 44.318,241.065C44.462,241.919 45.253,242.508 46.353,243.248L46.917,243.619C48.27,244.509 49.339,245.212 49.988,246.072C50.173,246.319 50.346,246.514 50.493,246.683C50.617,246.821 50.77,246.991 50.789,247.052C50.789,247.062 50.788,247.205 50.487,247.707C50.226,248.141 50.022,248.463 49.837,248.756C49.436,249.386 49.12,249.884 48.554,251.013C48.042,252.045 46.703,253.091 46.088,253.234C45.672,251.487 44.478,251.222 43.79,251.222C43.385,251.222 42.948,251.303 42.452,251.469C41.245,251.871 36.66,253.613 35.638,254.638C35.147,255.128 34.101,255.818 33.31,255.818C33.018,255.818 32.812,255.724 32.645,255.515C31.803,254.468 30.619,253.766 29.696,253.766C29.062,253.766 28.572,254.096 28.387,254.646C28.122,255.446 28.695,256.066 29.157,256.565C29.419,256.848 29.777,257.235 29.729,257.426C29.716,257.481 29.703,257.521 29.692,257.549C29.546,257.511 29.192,257.355 28.444,256.76C27.228,255.782 25.608,254.653 23.884,254.653C23.669,254.653 23.457,254.67 23.249,254.704C22.684,254.799 22.187,254.848 21.772,254.848C20.923,254.848 20.397,254.659 20.21,254.286C20.07,254.003 19.941,253.656 19.816,253.319C19.441,252.305 19.015,251.157 17.93,251.157C17.47,251.157 15.937,251.229 15.469,252.169C15.336,252.437 15.189,252.993 15.712,253.687C15.864,253.888 16.068,254.138 16.294,254.408C16.634,254.82 17.27,255.584 17.526,256.057C15.714,256.044 15.362,255.736 15.047,255.101C14.726,254.463 14.197,254.102 13.591,254.102C12.816,254.102 12.039,254.691 11.561,255.642C11.191,256.382 10.453,256.613 8.829,256.881C7.865,257.044 7.203,257.556 7.013,258.291C6.792,259.138 7.244,260.11 8.222,260.893C9.057,261.558 9.309,262.139 9.275,262.368C9.258,262.488 9.089,262.58 8.952,262.635C7.425,263.246 6.779,264.165 6.708,264.267L5.727,265.73L7.457,265.389C7.457,265.389 7.743,265.337 8.163,265.337C8.566,265.337 9.172,265.386 9.768,265.624C10.625,265.969 10.668,266.521 10.668,268.21C10.668,269.947 10.98,270.897 12.759,271.608L13.213,271.784C13.618,271.941 14.328,272.214 14.605,272.424C14.575,272.456 14.532,272.492 14.476,272.537C13.719,273.147 13.123,273.625 13.082,274.382C13.042,275.1 13.52,275.721 14.415,276.616C16.082,278.28 16.718,279.214 16.939,280.321C17.089,281.073 17.384,281.56 17.67,282.032C17.985,282.552 18.312,283.09 18.577,284.165C18.699,284.654 18.848,285.129 18.995,285.597C19.478,287.143 19.895,288.482 19.177,289.917C18.459,291.358 18.571,292.624 18.662,293.638C18.723,294.322 18.775,294.913 18.593,295.46C18.384,296.088 18.184,296.231 17.703,296.573C17.218,296.918 16.556,297.391 15.712,298.515C14.822,299.698 14.174,300.795 13.6,301.763C13.102,302.607 12.67,303.335 12.189,303.942C11.802,304.424 9.874,306.93 10.186,308.684C10.28,309.217 10.569,309.643 11.02,309.915C11.586,310.251 12.189,310.422 12.82,310.422C13.324,310.422 13.81,310.315 14.272,310.15L14.086,310.284L14.689,310.893C14.689,310.893 14.932,311.156 15,311.542C14.667,311.572 14.191,311.629 13.574,311.876L13.179,312.03C11.948,312.508 10.788,312.956 9.931,314.676C9.55,315.432 9.473,315.465 9.216,315.573C8.953,315.685 8.555,315.852 7.951,316.338C6.866,317.199 6.256,318.484 5.808,319.421C5.659,319.738 5.524,320.017 5.406,320.216C5.101,320.109 4.508,319.526 4.508,319.08C4.508,317.612 3.593,317.497 3.312,317.497C2.876,317.497 2.383,317.72 1.712,318.225C0.636,319.026 1.024,320.102 1.306,320.888C1.494,321.416 1.69,321.96 1.69,322.616C1.69,323.015 1.65,323.426 1.61,323.823C1.519,324.766 1.431,325.657 1.96,326.24C2.242,326.55 2.634,326.706 3.129,326.706C3.373,326.706 3.644,326.669 3.955,326.592C5.143,326.295 5.89,326.258 6.49,326.226C6.969,326.201 7.382,326.179 7.823,326.034C7.881,326.013 7.942,326.004 8,326.004C8.088,326.004 8.134,326.026 8.143,326.032C8.149,326.069 8.132,326.338 7.8,326.837C7.081,327.911 7.235,328.708 7.491,329.186C7.899,329.947 8.873,330.42 10.038,330.42C10.472,330.42 10.571,330.486 10.574,330.489C10.668,330.618 10.668,331.28 10.668,331.865C10.668,332.426 10.775,332.997 10.871,333.499C10.961,333.974 11.099,334.688 10.975,334.866C10.955,334.893 10.874,334.932 10.736,334.954C10.583,334.98 10.425,334.993 10.247,334.993C9.927,334.993 9.605,334.952 9.291,334.912C8.997,334.874 8.717,334.84 8.449,334.84C8.274,334.84 7.739,334.84 7.332,335.214C7.016,335.504 6.862,335.92 6.862,336.489C6.862,338.336 6.759,338.636 6.078,338.774C5.111,338.965 4.846,339.456 4.795,339.835C4.678,340.69 5.629,341.359 6.448,341.768C6.708,341.899 6.952,341.99 7.175,342.068C7.325,342.123 7.533,342.198 7.586,342.242C7.576,342.242 7.622,342.435 7.434,343.094C7.04,344.473 7.044,345.344 7.447,346.005C7.762,346.521 8.297,346.846 9.081,347C9.25,347.033 9.431,347.051 9.614,347.051C10.106,347.051 10.562,346.931 10.961,346.824C11.257,346.747 11.536,346.673 11.741,346.673C11.887,346.673 11.99,346.691 12.137,346.933C12.635,347.766 12.677,347.897 12.886,348.527C12.999,348.867 13.153,349.328 13.432,350.076C13.697,350.784 13.691,351.224 13.686,351.616C13.674,352.655 13.921,353.185 15.494,353.767C16.015,353.965 16.51,354.06 17.002,354.06C17.44,354.06 17.789,353.982 18.044,353.925C18.103,353.914 18.169,353.899 18.225,353.89C18.25,353.938 18.282,354.017 18.323,354.134C18.502,354.674 18.738,355.011 18.916,355.233C18.681,355.468 18.266,355.831 17.992,356.072C17.162,356.796 16.665,356.985 16.301,357.124C15.457,357.443 15.117,357.784 14.768,359.168C14.272,361.148 14.758,361.895 15.558,362.808C15.693,362.963 15.837,363.126 15.982,363.32C16.136,363.527 16.23,363.707 16.323,363.884C16.549,364.318 16.859,364.913 17.88,364.913C18.244,364.913 18.726,364.843 19.445,364.683C19.712,364.623 19.969,364.594 20.201,364.594C21.512,364.594 22.237,365.518 22.984,367.016C23.281,367.61 23.636,368.012 23.921,368.336C24.46,368.948 24.605,369.112 24.076,370.172C23.013,372.288 22.509,373.474 23.558,375.226C23.672,375.417 23.822,375.599 23.992,375.779L23.984,375.813L24.312,376.094L24.312,376.095L25.242,376.902L25.261,376.814C25.444,376.95 25.62,377.094 25.658,377.177C25.65,377.178 25.625,377.251 25.518,377.387L25.44,377.485C24.781,378.311 24.211,379.024 23.717,379.024C23.57,379.024 23.393,378.965 23.196,378.846C22.676,378.535 22.165,378.378 21.676,378.378C20.521,378.378 19.583,379.199 18.886,380.82C18.48,381.773 17.494,382.112 16.449,382.474C15.825,382.69 15.234,382.893 14.768,383.245C13.435,384.238 12.457,386.224 13.463,388.233C13.504,388.314 13.575,388.458 13.642,388.597C13.372,388.714 13.003,388.902 12.575,389.245C11.639,389.988 11.488,390.295 11.382,391.116C11.335,391.471 11.273,391.956 10.978,392.842C10.772,393.462 10.504,394.078 10.246,394.671C9.484,396.431 8.696,398.248 9.674,399.964C10.107,400.723 10.459,401.644 10.799,402.534C11.302,403.85 11.776,405.092 12.513,405.834C12.772,406.092 13.03,406.31 13.28,406.517C14.06,407.168 14.575,407.598 14.751,409.207C15.016,411.605 16.021,413.298 17.822,414.377C18.201,414.603 18.518,414.919 18.854,415.256C19.525,415.927 20.287,416.688 21.6,416.688C21.76,416.688 21.928,416.677 22.105,416.652C22.631,416.576 23.021,416.524 23.285,416.524C23.338,416.524 23.377,416.526 23.405,416.529C23.428,416.622 23.454,416.832 23.454,417.287C23.454,419.05 25.129,420.192 27.722,420.192C28.568,420.192 29.282,420.445 29.54,420.837C29.705,421.089 29.692,421.444 29.497,421.895C29.108,422.805 29.134,423.776 29.155,424.634C29.187,425.897 29.17,426.576 28.443,426.994C28.085,427.199 27.765,427.365 27.482,427.511C26.208,428.174 25.366,428.612 25.092,430.514C25.032,430.943 24.997,431.321 24.966,431.659C24.863,432.788 24.816,433.303 23.937,434.179C22.583,435.539 21.615,436.77 21.29,438.362C21.212,438.758 21.047,439.171 20.874,439.606C20.705,440.028 20.531,440.464 20.424,440.92L19.997,442.714L21.06,442.011C21.078,442.204 21.114,442.397 21.191,442.588C21.735,443.945 21.735,448.027 24.184,446.664C26.633,445.306 26.633,447.482 27.722,448.024C28.806,448.572 31.528,449.659 30.983,451.022C30.439,452.378 31.256,453.47 32.345,454.015C33.431,454.558 33.161,454.829 32.345,455.645C31.528,456.46 32.075,457.277 33.431,458.91C34.792,460.543 37.245,462.176 37.245,463.808C37.245,465.44 38.054,467.343 39.415,466.799C40.779,466.258 39.415,467.343 39.145,468.975C38.875,470.61 39.69,471.155 41.598,471.423C43.498,471.695 43.227,472.785 44.313,472.785C45.402,472.785 46.761,470.876 46.491,469.789C46.219,468.702 44.859,467.616 45.948,467.343C47.036,467.073 49.207,466.258 50.571,467.073C51.929,467.886 53.837,467.343 54.653,469.245C55.468,471.155 55.468,471.969 56.011,473.599C56.559,475.232 58.46,475.232 58.46,473.873C58.46,472.512 59.545,472.785 60.909,473.873C62.267,474.956 65.533,476.322 66.891,475.506C68.252,474.689 68.528,476.32 69.885,474.956C70.404,474.44 70.913,473.89 71.355,473.399L71.486,474.365L72.543,473.161C72.756,472.919 72.927,472.72 73.034,472.593C73.649,472.383 74.928,471.999 75.704,471.999C75.938,471.999 76.018,472.037 76.018,472.037C76.436,472.315 77.003,472.384 77.6,472.46C78.689,472.591 79.156,472.72 79.232,473.175C79.303,473.607 79.286,474.055 79.268,474.526C79.224,475.646 79.169,477.038 80.637,478.013C81.151,478.356 81.62,478.77 82.034,479.137C82.773,479.788 83.307,480.26 83.937,480.26C84.33,480.26 84.675,480.067 84.911,479.716C84.987,479.603 85.072,479.549 85.173,479.549C85.295,479.549 85.452,479.63 85.512,479.812C85.68,480.314 87,483.017 88.792,483.017C89.204,483.017 89.587,482.877 89.932,482.6C90.221,482.371 90.622,482.05 90.74,482.01C90.718,482.023 90.869,482.095 90.99,482.15C91.162,482.232 91.375,482.331 91.65,482.441C91.981,482.571 92.316,482.641 92.643,482.641C93.512,482.641 94.179,482.185 94.769,481.783C95.025,481.609 95.268,481.443 95.515,481.318C95.527,481.313 95.539,481.307 95.548,481.303C95.622,481.374 95.732,481.528 95.817,481.646C96.131,482.074 96.559,482.661 97.361,482.984C97.509,483.042 97.651,483.101 97.786,483.156C98.409,483.417 98.997,483.661 99.655,483.661C100.327,483.661 100.951,483.412 101.623,482.876C102.079,482.513 102.396,482.343 102.626,482.343C102.919,482.343 103.328,482.625 103.979,483.146C104.791,483.797 105.931,484.343 106.936,484.825C107.72,485.201 108.458,485.555 108.892,485.88C109.054,486.002 109.214,486.129 109.378,486.257C110.373,487.04 111.503,487.932 113.142,487.932C113.91,487.932 115.042,488.676 115.936,489.444L115.643,489.794C114.247,491.345 112.296,493.633 111.637,495.376C111.396,496.023 111.21,496.766 111.011,497.553C110.606,499.171 110.1,501.185 109.13,501.462C107.095,502.043 106.158,502.647 104.957,504.152C104.206,505.09 103.486,506.453 102.908,507.55C102.617,508.101 102.366,508.578 102.196,508.835C101.744,509.513 99.93,511.363 98.538,512.473C96.954,513.741 94.729,516.953 94.729,520.121C94.729,522.798 94.055,524.555 92.544,525.813C91.247,526.89 91.298,528.154 91.341,529.266C91.367,529.885 91.391,530.47 91.218,531.076C90.972,531.93 90.929,533.449 90.884,535.057C90.839,536.623 90.765,539.249 90.379,539.68L90.267,539.764C89.19,540.569 88.26,541.266 87.675,543.607C87.336,544.961 86.779,545.846 86.007,547.066C85.634,547.658 85.208,548.33 84.755,549.149C84.049,550.416 83.622,551.477 83.28,552.335C82.96,553.13 82.707,553.766 82.359,554.227C81.333,555.596 80.585,558.295 81.14,560.81C81.581,562.796 82.505,564.397 83.178,565.565C83.366,565.89 83.531,566.175 83.654,566.417C84.067,567.248 83.808,568.281 82.974,569.114C81.838,570.247 81.193,571.92 81.352,573.247C80.869,573.917 79.822,575.644 80.341,577.442C80.717,578.776 80.717,578.776 79.997,579.818C79.885,579.983 79.757,580.166 79.617,580.376C78.497,582.059 78.3,583.654 79.002,585.407C79.293,586.13 79.217,586.261 78.735,587.104C78.58,587.372 78.401,587.685 78.208,588.071C77.592,589.302 77.008,591.759 80.014,594.385C81.432,595.628 81.506,596.671 81.565,597.509C81.587,597.831 81.609,598.137 81.702,598.419C81.979,599.246 82.908,599.867 83.864,599.867C84.697,599.867 85.457,599.417 86.002,598.596C86.427,597.959 86.725,597.713 86.874,597.618C86.868,597.831 86.41,598.419 86.161,598.741C85.843,599.155 85.514,599.582 85.283,600.046C85.003,600.609 85.047,601.26 85.404,601.836C85.891,602.622 86.83,603.092 87.916,603.092C88.515,603.092 89.139,602.95 89.771,602.671C90.752,602.23 92.021,601.504 93.247,600.802C94.829,599.894 96.993,598.653 97.632,598.653C97.832,598.741 98.063,599.574 98.172,599.972C98.427,600.892 98.716,601.936 99.63,602.166C100.155,602.297 101.244,602.309 101.688,602.309C102.813,602.309 108.533,602.203 110.665,600.067C112.107,598.618 115.761,596.853 117.974,596.853C118.685,596.853 119.121,597.03 119.27,597.387C120.52,600.39 123.043,600.735 124.831,600.735C125.922,600.735 127.223,600.592 129.048,600.268L129.798,600.137L129.632,599.393C129.593,599.205 129.295,597.493 131.119,596.68C131.514,596.506 131.93,596.417 132.346,596.417C133.562,596.417 134.517,597.181 134.719,597.478L134.719,598.101L135.449,598.101C136.232,598.101 137.789,597.573 138.071,595.579C138.138,595.106 138.372,594.723 138.599,594.351C138.901,593.858 139.244,593.295 139.037,592.624C138.85,592.012 138.272,591.529 137.108,590.998C136.307,590.632 135.651,590.455 135.099,590.455C133.987,590.455 133.45,591.158 133.058,591.674C132.842,591.959 132.636,592.229 132.348,592.401C131.782,592.74 131.016,592.945 130.304,592.945C129.66,592.945 128.757,592.783 128.118,592.008C127.625,591.419 127.465,590.547 127.682,589.669C127.854,588.986 128.24,588.42 128.647,588.258C130.119,587.672 130.389,586.199 130.586,585.126C130.626,584.905 130.664,584.69 130.713,584.498C130.849,584.336 131.774,584.146 132.327,584.033C133.316,583.832 134.437,583.6 135.308,583.021C135.842,582.664 136.185,582.591 136.38,582.591C136.884,582.591 137.089,583.292 137.174,583.88C137.345,585.065 138.051,585.491 138.657,585.491C139.49,585.491 140.373,584.688 140.683,583.411C142.628,584.172 144.094,585.126 144.104,585.52C143.682,586.154 143.114,586.435 142.513,586.737C141.732,587.122 140.849,587.564 140.465,588.711C140.217,589.463 140.44,590.003 140.672,590.327C141.393,591.321 143.055,591.401 143.548,591.401C143.94,591.401 144.304,591.363 144.601,591.289C144.645,591.277 144.684,591.273 144.727,591.273C145.048,591.273 145.489,591.544 145.879,591.785C146.366,592.081 146.869,592.391 147.42,592.391C147.958,592.391 148.402,592.096 148.606,591.599C148.926,590.827 148.588,589.709 147.784,588.833C148.029,588.929 148.321,589.074 148.661,589.289C150.684,590.551 150.697,591.381 150.508,592.333C150.386,592.941 150.52,593.52 150.884,593.959C151.286,594.453 151.925,594.723 152.68,594.723C153.447,594.723 154.303,594.444 155.15,593.913C156.947,592.789 158.669,592.22 160.271,592.22C160.747,592.22 161.221,592.272 161.674,592.374C164.147,592.928 167.649,594.304 169.124,595.036C169.652,595.298 170.587,595.607 171.77,595.991C173.895,596.688 177.853,597.98 178.299,599.021C180.405,603.916 182.142,606.299 183.769,606.527C184.047,606.569 184.33,606.588 184.602,606.588C186.333,606.588 187.695,605.768 189.169,604.781C189.349,604.659 189.543,604.601 189.757,604.601C190.57,604.601 191.497,605.452 191.757,605.748L192.165,606.215L192.693,605.884L194.571,604.709C195.129,604.888 196.253,605.209 197.128,605.209C197.842,605.209 198.344,605 198.623,604.579C198.947,604.098 199.049,603.522 199.072,603.004L199.157,603.014L199.041,602.09C199.038,602.07 199.035,602.052 199.032,602.033L199.028,602.004C199.253,600.875 199.789,599.205 200.356,598.776C200.543,598.638 200.838,598.551 201.149,598.551C201.577,598.551 201.969,598.705 202.147,598.941C202.193,599.002 202.336,599.191 202.212,599.628C201.788,601.113 202.128,601.994 202.489,602.471C202.9,603.014 203.559,603.319 204.344,603.319C204.531,603.319 204.728,603.304 204.937,603.267C205.218,603.219 205.544,603.158 205.896,603.09C206.917,602.892 208.188,602.647 209.061,602.647C209.453,602.647 209.622,602.698 209.678,602.721C209.827,602.959 209.971,603.324 210.123,603.705C210.447,604.518 210.851,605.533 211.646,606.325C212.726,607.403 214.381,607.971 215.455,607.971C215.666,607.971 215.861,607.948 216.036,607.905C216.349,608.126 217.054,609.078 217.257,610.121C217.318,610.427 217.376,610.986 217.086,611.275C216.18,612.185 215.75,613.238 215.873,614.237C215.975,615.056 216.453,615.764 217.224,616.229C217.816,616.585 218.596,616.777 219.426,616.777C221.136,616.777 222.507,615.981 222.921,614.751C223.015,614.471 223.145,614.471 223.2,614.471C223.327,614.471 223.541,614.553 223.723,614.777C223.89,614.985 224.141,615.454 223.961,616.258C223.829,616.864 223.727,617.415 223.634,617.926C223.374,619.344 223.201,620.284 222.608,620.733C221.846,621.302 221.505,622.205 221.762,622.972C221.987,623.649 222.613,624.058 223.437,624.058C223.712,624.058 224.014,624.011 224.332,623.922C224.521,623.869 224.734,623.813 224.962,623.752C227.132,623.167 230.766,622.191 231.88,619.416C232.898,616.867 234.93,615.152 235.734,614.946C236.811,614.68 237.271,613.552 237.715,612.468C237.911,611.99 238.113,611.494 238.359,611.083C239.036,609.951 239.249,607.772 238.826,606.331C238.614,605.61 238.264,605.124 237.784,604.886C237.018,604.498 236.629,604.302 237.078,602.749C237.206,602.3 237.293,601.901 237.348,601.547C237.709,601.988 238.147,602.337 238.679,602.444C239.155,602.54 239.773,602.593 240.378,602.593C241.738,602.593 244.104,602.337 244.681,600.604C244.788,600.279 245.002,599.908 245.706,599.908C246.211,599.908 246.852,600.111 247.423,600.454C248.106,600.863 249.128,601.252 250.113,601.635C251.186,602.049 252.297,602.476 252.801,602.854C253.442,603.341 254.168,603.586 254.956,603.586C255.855,603.586 256.834,603.275 257.953,602.636C258.209,602.489 258.499,602.412 258.785,602.412C259.347,602.412 259.781,602.697 259.872,602.974C259.989,603.324 259.532,603.713 259.332,603.862C258.948,604.151 258.045,604.826 258.324,605.661C258.597,606.485 259.712,606.553 260.829,606.553C261.084,606.553 261.342,606.546 261.59,606.543C261.811,606.541 262.023,606.538 262.218,606.538C263.294,606.538 264.25,608.512 264.502,609.522C264.526,609.618 264.547,609.722 264.569,609.836C264.785,610.878 265.185,612.821 268.355,612.821C268.579,612.821 268.817,612.812 269.071,612.792C271.328,612.622 274.169,611.618 276.451,610.811C276.937,610.639 277.413,610.471 277.855,610.32C277.765,610.59 277.724,610.87 277.761,611.154C277.812,611.542 278.025,612.08 278.761,612.449L279.177,612.66C279.721,612.944 280.114,613.146 280.565,613.146C281.382,613.146 281.873,612.516 282.669,611.404L282.921,611.047C284.051,609.45 284.641,608.684 285.691,608.684C285.806,608.684 285.928,608.69 286.056,608.707C287.888,608.974 288.962,609.234 288.972,609.237L289.876,609.458L289.876,604.88L288.779,606.201C288.781,606.184 288.782,606.175 288.784,606.16C289.049,603.768 289.217,603.55 290.78,603.55C291.299,603.55 291.847,603.58 292.426,603.614C293.014,603.647 293.624,603.684 294.21,603.684C295.25,603.684 296.564,603.586 297.491,602.837C298.532,602.013 298.241,601.232 298.068,600.769C297.913,600.355 297.793,600.026 298.434,599.175C299.737,597.437 300.96,597.298 302.812,597.082L303.379,597.013C303.567,596.99 303.769,596.982 303.984,596.982C304.563,596.982 305.247,597.051 305.969,597.123C306.791,597.205 307.64,597.291 308.471,597.291C310.038,597.291 311.138,596.975 311.93,596.299C313.504,594.954 318.081,593.457 319.998,593.457C320.116,593.457 320.222,593.459 320.309,593.478C321.121,593.608 322.061,593.742 323.003,593.878C323.965,594.015 324.929,594.15 325.751,594.287C326.545,594.42 327.16,594.502 327.776,594.502C328.395,594.502 329.008,594.42 329.801,594.287L329.892,594.272C330.795,594.122 331.448,594.015 331.728,593.388C332.023,592.739 331.667,592.047 330.844,590.728L330.535,590.243C329.269,588.251 328.884,587.506 329.926,586.463C330.56,585.831 331.069,585.206 331.517,584.654C332.015,584.042 332.459,583.498 332.844,583.248C332.883,583.868 332.649,585.191 332.294,585.894C332.189,586.106 331.873,586.737 332.208,587.273C332.345,587.5 332.633,587.767 333.216,587.767C333.789,587.767 334.683,587.508 336.207,586.902C337.573,586.356 339.145,586.026 340.412,586.026C341.62,586.026 342.225,586.325 342.389,586.597C342.571,586.902 342.754,587.268 342.946,587.651C343.643,589.038 344.51,590.762 346.048,591.273C346.304,591.358 346.538,591.45 346.757,591.533C347.311,591.75 347.832,591.953 348.413,591.953C349.284,591.953 350.052,591.508 350.91,590.505C351.232,590.127 351.514,589.774 351.777,589.439C352.817,588.132 353.39,587.407 355.061,587.224L355.668,587.154C356.459,587.062 357.141,586.978 357.694,586.978C358.485,586.978 358.951,587.14 359.361,587.553C359.682,587.877 359.86,588.283 360.063,588.756C360.425,589.593 360.874,590.632 362.31,591.25C362.584,591.366 362.742,591.459 362.834,591.523C362.712,591.665 362.491,591.871 362.319,592.028C362.159,592.177 361.985,592.336 361.812,592.511C361.332,592.99 361.151,593.652 361.306,594.366C361.595,595.701 363.061,597.141 364.793,597.789C365.677,598.122 366.45,598.923 367.267,599.774C368.239,600.784 369.245,601.829 370.576,602.166C372.781,602.715 372.781,602.715 374.152,602.984C374.341,603.026 374.519,603.045 374.686,603.045C375.7,603.045 376.152,602.377 376.551,601.786C376.749,601.496 376.957,601.19 377.26,600.889C378.305,599.841 377.704,598.796 377.346,598.172C377.134,597.806 376.934,597.458 376.934,597.104C376.934,596.65 376.838,596.22 376.745,595.803C376.528,594.824 376.357,594.05 377.298,592.949C377.467,592.755 377.634,592.565 377.797,592.382C379.186,590.815 380.502,589.332 378.996,586.927C378.745,586.519 378.481,585.992 378.201,585.435C377.243,583.521 376.052,581.14 373.94,581.14C373.309,581.14 372.651,581.361 371.986,581.805C371.468,582.15 370.093,583.069 369.636,583.069C369.502,582.982 369.281,582.39 369.105,581.913L368.993,581.61C368.612,580.593 368.783,580.358 369.29,579.66C369.618,579.214 370.024,578.651 370.354,577.77C370.56,577.221 370.977,576.604 371.418,575.955C372.602,574.208 374.075,572.036 372.465,569.505C371.794,568.452 371.291,567.422 370.847,566.513C369.999,564.77 369.329,563.397 368.001,562.954C366.592,562.482 365.453,561.049 365.223,559.467C364.964,557.635 363.659,557.119 362.277,556.579C361.794,556.387 361.293,556.193 360.751,555.92C359.86,555.472 359.276,554.868 359.066,554.169C358.873,553.527 358.997,552.787 359.426,552.039C359.86,551.281 360.44,550.952 361.174,550.534C362.015,550.059 362.968,549.519 363.762,548.247C364.409,547.212 364.616,546.322 364.766,545.675C364.962,544.833 365.022,544.652 365.548,544.474C365.885,544.364 366.262,544.311 366.736,544.311C366.981,544.311 367.217,544.324 367.441,544.336C367.664,544.346 367.875,544.361 368.07,544.361C368.397,544.361 369.263,544.361 369.736,543.644C370.295,542.81 373.17,539.753 375.096,539.03C376.536,538.492 378.535,538.056 380.298,537.677C381.139,537.492 381.946,537.32 382.641,537.146C384.801,536.603 392.59,532.177 393.237,529.252C393.527,527.951 393.527,526.932 393.527,526.034C393.527,525.178 393.527,524.437 393.771,523.586C394.304,521.716 394.842,520.094 394.847,520.078L394.926,519.837L394.842,519.599C394.551,518.798 393.799,516.5 393.799,515.495C393.799,515.375 393.799,515.253 393.8,515.154C394.069,515.052 394.488,514.883 395.105,514.466C396.148,513.774 396.366,513.414 396.583,512.944C396.676,512.74 396.757,512.565 397.119,512.201C397.133,512.188 397.146,512.176 397.155,512.166C397.471,512.521 397.991,513.052 399.065,513.456C400.049,513.824 400.965,514.03 401.772,514.213C402.732,514.427 403.559,514.615 404.055,514.985C404.332,515.195 404.683,515.586 405.02,515.97C405.793,516.842 406.597,517.748 407.559,517.748C407.888,517.748 408.196,517.641 408.471,517.432C409.247,516.849 409.497,516.133 409.736,515.44C409.918,514.917 410.108,514.372 410.539,513.722C410.875,513.219 411.166,513.009 411.472,512.789C412.193,512.27 412.731,511.76 413.096,509.923C413.258,509.116 413.478,508.361 413.67,507.696C414.141,506.052 414.55,504.634 413.824,503.421C413.592,503.033 413.378,502.765 413.208,502.549C412.814,502.051 412.669,501.866 412.839,500.339C412.908,499.699 412.999,499.172 413.08,498.706C413.306,497.392 413.468,496.44 412.766,495.038C412.541,494.588 412.358,494.205 412.193,493.859C411.743,492.917 411.42,492.236 410.785,491.389C409.963,490.287 408.681,488.206 408.446,487.509C408.276,486.998 407.853,486.706 407.286,486.706C406.993,486.706 406.693,486.779 406.346,486.862C405.957,486.954 405.517,487.059 405.064,487.059C404.918,487.059 404.768,487.049 404.615,487.024C403.408,486.823 402.722,486.108 401.898,484.193C400.943,481.968 398.744,481.341 396.805,480.788C396.615,480.733 396.43,480.707 396.253,480.706C395.118,480.706 394.71,481.735 394.467,482.353C394.42,482.469 394.359,482.625 394.304,482.738C394.252,482.703 394.179,482.652 394.087,482.571C392.265,481.008 390.421,480.375 389.495,480.067C389.532,479.812 389.641,479.404 389.719,479.112C389.991,478.103 390.3,476.96 389.933,476.047C389.345,474.566 385.661,470.227 383.955,469.893C382.747,469.648 379.614,469.611 378.655,469.606C378.176,469.161 377.346,468.255 377.191,467.472C376.84,465.714 374.59,463.949 373.315,463.183C372.656,462.787 372.414,462.231 372.108,461.53C371.905,461.061 371.694,460.573 371.338,460.103C370.234,458.623 369.146,457.35 368.013,456.22L367.759,455.963C366.409,454.605 364.151,452.327 361.269,452.327C360.837,452.327 360.398,452.381 359.973,452.487L359.479,452.613C358.218,452.932 357.222,453.184 356.506,453.184C355.865,453.184 355.453,453.014 355.116,452.12C354.193,449.641 351.201,446.752 348.726,446.752C348.543,446.752 348.458,446.692 348.395,446.628C347.864,446.094 347.876,444.245 347.882,443.022C347.888,442.261 347.892,441.602 347.809,441.103C347.544,439.497 345.97,438.74 345.218,438.466C344.726,437.002 343.322,432.896 342.809,432.119C342.486,431.642 341.963,431.389 341.501,431.167C340.716,430.793 340.692,430.701 340.734,430.486C340.953,429.418 341.529,426.567 339.655,426.099C338.152,425.727 336.258,424.931 335.707,424.193C334.905,423.125 334.686,422.745 335.423,421.819C336.408,420.588 338.189,419.565 338.206,419.555L340.594,418.192L337.845,418.192C337.855,418.192 337.656,418.177 337.584,418.067C337.5,417.94 337.489,417.594 337.711,416.999L337.81,416.735C338.54,414.785 338.813,414.055 340.039,412.584C340.849,411.611 341.633,410.465 341.331,409.332C341.133,408.583 340.521,408.026 339.459,407.628C337.696,406.965 337.559,406.552 337.55,406.507C337.542,406.476 337.576,406.342 337.814,406.104C338.325,405.593 338.498,404.934 338.286,404.301C337.943,403.266 336.572,402.379 334.953,402.149C333.647,401.958 333.291,401.676 332.109,400.745C331.781,400.488 331.401,400.188 330.935,399.84C330.052,399.176 329.224,398.775 328.495,398.417C327.398,397.881 326.672,397.527 326.276,396.597C325.598,395.018 324.543,394.508 323.699,394.1C323.363,393.939 323.046,393.788 322.774,393.581C322.544,393.41 322.393,393.023 322.356,392.525C322.298,391.7 322.568,390.882 322.853,390.596C323.59,389.862 323.893,388.456 323.542,387.395C323.251,386.517 322.569,385.96 321.624,385.824C320.715,385.696 320.367,385.449 319.888,385.108C319.482,384.819 319.021,384.491 318.215,384.222C317.709,384.053 317.376,383.693 317.348,383.281C317.319,382.893 317.571,382.535 318.039,382.301C318.54,382.052 318.895,381.643 319.059,381.119C319.432,379.935 318.731,378.454 318.412,377.872L318.317,377.697C318.814,377.39 319.53,377.026 320.159,377.026C321.248,377.026 320.977,379.205 321.795,380.288C322.604,381.379 324.24,380.83 325.057,381.65C325.871,382.469 325.331,383.009 325.057,383.827C324.788,384.641 325.871,384.103 326.143,385.183C326.418,386.276 327.502,390.356 328.865,386.276C330.225,382.193 330.498,380.019 331.312,379.472C332.126,378.931 332.675,377.297 332.675,376.212C332.675,375.123 334.85,374.306 335.669,374.034C336.482,373.763 337.027,372.133 337.572,371.037C338.115,369.954 344.916,368.594 346.002,368.866C347.089,369.137 347.095,368.866 349.271,367.231C351.442,365.601 353.623,365.328 356.612,366.961C359.606,368.594 358.794,368.866 358.794,368.866C358.794,368.866 361.784,368.318 362.598,365.87C363.417,363.424 362.325,362.883 362.87,361.248C363.417,359.617 364.502,361.248 365.863,360.703C367.22,360.159 368.041,359.617 369.671,360.159C371.303,360.703 372.663,359.887 372.663,357.438C372.663,354.991 373.755,352.543 374.841,353.083C375.926,353.633 377.562,355.264 377.832,353.903C378.108,352.539 378.102,351.723 379.192,350.364C380.281,349.002 380.553,347.375 380.553,347.375C380.553,347.375 380.281,349.002 381.641,350.096C383,351.18 383.814,352.002 384.631,351.18C385.448,350.364 385.725,350.637 386.812,349.002C387.9,347.375 387.9,346.826 387.9,345.469C387.9,344.103 387.081,342.21 388.441,342.477C389.802,342.748 390.617,343.027 392.523,341.93C394.425,340.847 395.238,341.661 396.605,341.661C397.963,341.661 398.238,340.847 400.139,340.302C402.047,339.755 402.316,340.847 403.946,340.302C405.584,339.755 406.668,339.755 406.125,338.396C405.584,337.034 406.125,334.594 409.391,333.773C412.654,332.954 412.927,334.311 415.373,332.686C417.822,331.056 420,329.689 421.634,328.874C423.263,328.058 421.089,328.333 422.992,326.698C424.896,325.065 425.444,325.613 427.616,325.065C429.791,324.522 431.966,322.887 428.978,321.805C425.984,320.714 425.444,320.442 425.444,319.355C425.444,318.267 423.806,318.539 423.263,317.722C422.722,316.907 422.716,316.907 423.263,315.001C423.806,313.097 423.536,313.097 425.707,313.37C427.889,313.643 427.889,313.643 428.978,314.727C430.067,315.818 430.607,316.091 431.696,314.455C432.782,312.82 433.876,312.82 434.961,313.913C436.053,315.001 438.767,315.818 439.313,316.907C439.856,317.992 439.856,319.625 439.042,320.714C438.227,321.805 439.042,323.436 440.947,322.346C442.85,321.256 443.39,323.705 442.301,325.065C441.221,326.424 441.761,327.516 443.671,327.788C445.574,328.058 448.021,328.874 448.561,329.689C449.101,330.506 451.826,329.963 452.097,327.516C452.369,325.065 452.369,323.436 453.995,321.528C455.639,319.625 455.365,316.358 456.182,314.455C456.997,312.554 459.981,303.578 459.166,301.944C458.352,300.309 459.166,298.13 459.716,296.232C460.259,294.33 458.626,291.34 457.534,289.16Z" style="fill:rgb(75,74,75);stroke:rgb(75,74,75);stroke-width:4.86px;"/>
    </g>
</svg>
